<svg xmlns="http://www.w3.org/2000/svg" xmlns:xlink="http://www.w3.org/1999/xlink" fill="none" version="1.1" width="36" height="36" viewBox="0 0 36 36"><g><g></g><g><path d="M13.5,3.375L13.5,6.75L22.5,6.75L22.5,3.375L24.75,3.375L24.75,6.75L29.25,6.75C30.4926,6.75,31.5,7.75736,31.5,9L31.5,29.25C31.5,30.4926,30.4926,31.5,29.25,31.5L6.75,31.5C5.50736,31.5,4.5,30.4926,4.5,29.25L4.5,9C4.5,7.75736,5.50736,6.75,6.75,6.75L11.25,6.75L11.25,3.375L13.5,3.375ZM11.25,9L6.75,9L6.75,13.5L29.25,13.5L29.25,9L24.75,9L24.75,11.25L22.5,11.25L22.5,9L13.5,9L13.5,11.25L11.25,11.25L11.25,9ZM6.75,29.25L29.25,29.25L29.25,15.75L6.75,15.75L6.75,29.25Z" fill-rule="evenodd" fill="#FFFFFF" fill-opacity="1"/></g></g></svg>