<svg xmlns="http://www.w3.org/2000/svg" xmlns:xlink="http://www.w3.org/1999/xlink" fill="none" version="1.1" width="16" height="16" viewBox="0 0 16 16"><g><g><rect x="0" y="0" width="16" height="16" rx="0" fill="#D8D8D8" fill-opacity="0"/></g><g><path d="M12.68,3L3.3200000000000003,3C2.6,3,2,3.575916,2,4.2670200000000005L2,10.60209C2,11.35078,2.6,11.9267,3.3200000000000003,11.86911L12.68,11.86911C13.4,11.86911,14,11.29319,14,10.60209L14,4.2670200000000005C14,3.575917,13.4,3.0000007909,12.68,3ZM11.54,6.858639999999999L11.48,6.9162300000000005L9.379999999999999,8.93194C9.2,9.10471,8.96,9.10471,8.780000000000001,8.93194L8.719999999999999,8.87434L6.92,7.1466L5.12,8.87434C4.9399999999999995,9.04712,4.7,9.04712,4.52,8.93194L4.46,8.87434C4.279999999999999,8.70157,4.279999999999999,8.4712,4.4,8.29843L4.46,8.24084L6.56,6.22513C6.74,6.052350000000001,6.98,6.052350000000001,7.16,6.22513L7.22,6.282719999999999L9.02,8.01047L10.82,6.282719999999999C11,6.1099499999999995,11.3,6.1099499999999995,11.48,6.282719999999999C11.66,6.4555,11.66,6.68586,11.54,6.858639999999999ZM11.12,13.0785C11.36,13.0785,11.6,13.2513,11.6,13.5393C11.6,13.8272,11.42,14,11.12,14L4.88,14C4.640000000000001,14,4.4,13.8272,4.4,13.5393C4.4,13.2513,4.58,13.0785,4.88,13.0785L11.12,13.0785Z" fill="#00706B" fill-opacity="1"/></g></g></svg>
