<svg xmlns="http://www.w3.org/2000/svg" xmlns:xlink="http://www.w3.org/1999/xlink" fill="none" version="1.1" width="16" height="16" viewBox="0 0 16 16"><g><g><rect x="0" y="0" width="16" height="16" rx="0" fill="#D8D8D8" fill-opacity="0"/></g><g><path d="M4.62527,5.52909C5.660550000000001,5.52909,6.5,4.739269999999999,6.5,3.76455C6.5,2.789819,5.660550000000001,2,4.62473,2C3.59,2,2.750545,2.789818,2.750545,3.76455C2.750545,4.739269999999999,3.59,5.5296400000000006,4.62582,5.5296400000000006L4.62527,5.52909ZM11.37527,5.52909C12.4105,5.52909,13.25,4.739269999999999,13.25,3.76455C13.25,2.789819,12.4105,2,11.37473,2C10.34,2,9.5,2.789818,9.5,3.76455C9.5,4.739269999999999,10.33945,5.5296400000000006,11.37527,5.5296400000000006L11.37527,5.52909ZM5.132,6.236C6.30144,6.236,7.24945,7.18402,7.24945,8.35346L7.24891,9.36582L8.00055,10.082L8.74945,9.367460000000001L8.74945,8.35346C8.74945,7.18402,9.69747,6.236,10.86691,6.236L11.88145,6.236C13.0511,6.2354,13.9997,7.18326,14,8.35291L14,11.882C14.0003,13.0517,13.0522,14,11.88255,14L10.868,14C9.69835,14.0003,8.75,13.0522,8.75,11.88255L8.75,10.556L8.432,10.76873L8.432,10.92909C8.432,11.13454,8.265450000000001,11.30109,8.059999999999999,11.30109C7.85455,11.30109,7.688,11.13454,7.688,10.92909L7.688,10.76927L7.24945,10.48455L7.25,11.88255C7.25,13.052,6.30198,14,5.13255,14L4.118,14C2.94835,14.0003,2.000000202873,13.0522,2.0000000676242,11.88255L2.0000000676242,8.35346C1.999698802,7.1838,2.947804,6.23545,4.11745,6.23545L5.132,6.23545L5.132,6.236Z" fill="#00706B" fill-opacity="1"/></g></g></svg>
