<svg xmlns="http://www.w3.org/2000/svg" xmlns:xlink="http://www.w3.org/1999/xlink" fill="none" version="1.1" width="16" height="16" viewBox="0 0 16 16"><g><g><rect x="0" y="0" width="16" height="16" rx="0" fill="#D8D8D8" fill-opacity="0"/></g><g><path d="M13.45,8.475C13.2,6.15,11.825,4.2,10,3.4L10,6.5L9,6.5L9,3.1C8.725,3.0500001,8.425,3,8.125,3C7.75,3,7.375,3.05,7,3.15L7,6.5L6,6.5L6,3.525C4.325,4.375,3.075,6.175,2.8,8.35C1.7,8.8,1,9.45,1,10.25C1,11.225,2,11.925,3.475,12.4C4.75,12.8,6.375,13,8,13C9.75,13,11.5,12.75,12.825,12.3C14.125,11.85,15,11.15,15,10.25C14.975,9.5,14.375,8.9,13.45,8.475Z" fill="#00706B" fill-opacity="1"/></g></g></svg>
