<?xml version="1.0" encoding="UTF-8"?>
<svg width="11px" height="12px" viewBox="0 0 11 12" version="1.1" xmlns="http://www.w3.org/2000/svg" xmlns:xlink="http://www.w3.org/1999/xlink">
    <title>智网logo</title>
    <g id="页面-1" stroke="none" stroke-width="1" fill="none" fill-rule="evenodd">
        <g id="小程序首页1016版备份-3" transform="translate(-112, -820)">
            <g id="编组-15" transform="translate(112, 818)">
                <g id="编组" transform="translate(0, 2)">
                    <path d="M2.13137539,8.04154513 L5.15420885,10.8973318 L3.98704105,12 L0.965144325,9.14421331 L0.161428457,8.38491211 C-0.0661973659,8.16721036 -0.0558933163,7.94596875 0.210138509,7.69463829 L3.81374567,4.29017241 C4.43573557,3.81937026 5.22914739,3.93795576 5.85207403,4.52645844 L8,6.55568648 L6.8328322,7.65835466 L5.07458665,5.99727266 C4.80668136,5.74417226 4.57156168,5.73620756 4.3392522,5.95479427 L2.13043866,8.04154513 L2.13043866,8.04154513 L2.13137539,8.04154513 Z" id="路径" fill="#6FBA2C"></path>
                    <path d="M8.86768788,7.53647357 L5.84485442,4.38251167 L7.01202222,3.16471293 L10.0348557,6.31867483 L10.8385715,7.15725535 C11.0661974,7.39768752 11.0558933,7.64202916 10.7898615,7.91960127 L7.18625433,11.6795304 C6.56426443,12.1994894 5.77085261,12.0685223 5.14792597,11.4185736 L3,9.17747203 L4.1671678,7.95967329 L5.92541335,9.79419034 C6.19331864,10.0737172 6.42843832,10.0825135 6.6607478,9.84110393 L8.86956134,7.53647357 L8.86956134,7.53647357 L8.86768788,7.53647357 Z M4.57370939,1.2598255 L3.85242592,0.553189475 L3.12926899,1.2539613 L3.85055246,1.96059733 L4.57370939,1.2598255 L4.57370939,1.2598255 Z M6.23547157,0.780915884 L5.44486995,0 L4.64583774,0.768210119 L5.43643936,1.549126 L6.23547157,0.780915884 L6.23547157,0.780915884 Z M6.43780564,2.53822097 L5.43643936,1.549126 L4.42476904,2.52160573 L5.42613531,3.5107007 L6.43780564,2.5372436 L6.43780564,2.5372436 L6.43780564,2.53822097 Z" id="形状" fill="#008CD6"></path>
                </g>
            </g>
        </g>
    </g>
</svg>