<?xml version="1.0" encoding="UTF-8"?>
<svg width="170px" height="49px" viewBox="0 0 170 49" version="1.1" xmlns="http://www.w3.org/2000/svg" xmlns:xlink="http://www.w3.org/1999/xlink">
    <title>电网logo</title>
    <defs>
        <radialGradient cx="11.3501441%" cy="42.9974269%" fx="11.3501441%" fy="42.9974269%" r="69.3500053%" gradientTransform="translate(0.1135, 0.43), scale(0.9998, 1), translate(-0.1135, -0.43)" id="radialGradient-1">
            <stop stop-color="#F7FAF6" offset="0%"></stop>
            <stop stop-color="#00706B" offset="100%"></stop>
        </radialGradient>
    </defs>
    <g id="页面-1" stroke="none" stroke-width="1" fill="none" fill-rule="evenodd">
        <g id="领导关键指标看板" transform="translate(-26, -11)" fill-rule="nonzero">
            <g id="电网logo" transform="translate(26, 11)">
                <path d="M8.8808367,9.2704895 L8.40188847,8.81589457 L8.63730371,8.57236157 C8.63730371,8.70224584 8.63730371,8.82401234 8.60483264,8.9295433 C8.8321301,8.90519 8.9782499,8.89707224 9.03507427,8.90519 C9.1000164,8.90519 9.16495854,8.92142554 9.21366514,8.9295433 L8.8808367,9.27860727 L8.8808367,9.2704895 Z M8.06094227,10.8615718 L8.35318187,10.5368611 L9.70073114,9.14060524 L10.0335596,8.81589457 L9.65202454,8.45059507 L9.40037377,8.72659914 C9.392256,8.60483264 9.38413824,8.49118391 9.37602047,8.38565294 L9.20554737,8.38565294 C9.20554737,8.38565294 8.97013214,8.40188847 8.97013214,8.40188847 C8.9295433,8.40188847 8.87271894,8.40188847 8.79965904,8.40188847 L9.06754534,8.15023771 L8.66977477,7.77682044 L8.45871284,8.01223567 L8.03658897,8.45871284 L7.67940724,8.12588441 L8.13400217,7.66317171 L8.45059507,7.36281434 L8.05282451,6.98939708 L7.73623161,7.33034328 L6.45362448,8.65353924 L6.15326711,8.94577884 L6.54291991,9.3191961 L6.82704174,9.0026032 L7.27351891,8.53989051 L7.62258288,8.87271894 L7.27351891,9.23801844 L6.97316154,9.5383758 L7.36281434,9.9036753 L7.64693618,9.5870824 L7.99600014,9.2217829 L8.47494837,9.67637784 L7.99600014,10.1715616 L7.67940724,10.4800367 L8.06094227,10.8453362 L8.06094227,10.8615718 Z M5.43078588,9.2948428 L7.81740927,11.5515819 L8.22329761,11.9574703 L8.63730371,11.5191109 L8.58047934,11.478522 L10.6667454,9.3191961 L10.7398053,9.392256 L11.1700469,8.9538966 L10.7398053,8.57236157 L8.32882857,6.29126915 L7.95541131,5.91785188 L7.63070064,6.28315138 L5.39019705,8.59671487 L5.03301532,8.94577884 L5.42266812,9.30296057 L5.43078588,9.2948428 Z M5.85290975,8.8808367 L7.93917577,6.72962854 L10.2933281,8.9538966 L8.20706207,11.1051048 L5.85290975,8.87271894 L5.85290975,8.8808367 Z" id="形状" fill="#00706B"></path>
                <path d="M13.5810236,6.08020721 C13.8164388,5.73926101 13.9950297,5.44702142 14.1005607,5.22784172 C14.0762074,5.19537065 14.0356185,5.17913512 14.0112652,5.15478182 C13.8407921,5.42266812 13.6946723,5.65808335 13.5404348,5.85290975 C13.4024327,6.05585391 13.1751353,6.31562245 12.8585424,6.62409758 C12.801718,6.56727321 12.7367759,6.52668438 12.6880693,6.49421331 C12.6312449,6.45362448 12.5175962,6.38868235 12.3552408,6.29938691 C12.5175962,6.17762041 12.6555982,6.07208945 12.7611292,5.96655848 C12.8747779,5.86102751 12.9965444,5.71490771 13.1426642,5.53631685 C13.2806662,5.34960822 13.4186683,5.16289958 13.532317,4.95995542 L13.4673749,4.94371988 C13.288784,5.13854628 13.1588997,5.28466608 13.0614865,5.37396152 C12.9640733,5.47137472 12.801718,5.60937675 12.5825383,5.81232091 C12.5257139,5.76361431 12.4688896,5.71490771 12.420183,5.68243665 C12.3714764,5.64996558 12.2497099,5.57690568 12.0630012,5.47137472 C12.2010033,5.38207928 12.3714764,5.26031278 12.5987738,5.09795745 C12.8260713,4.93560212 13.0777221,4.65959805 13.3537261,4.28618079 L12.7043048,4.61900922 L12.3308875,4.83007115 L12.0873545,4.36735845 L12.4688896,4.18064982 L14.3035048,3.23087112 L14.7256287,3.00357366 L14.9610439,3.47440412 L14.5389201,3.68546605 L13.8894987,4.01829449 C13.9706764,4.03453002 14.0518541,4.04264779 14.1411495,4.05888332 C14.0275008,4.22123865 13.9219698,4.39171175 13.8164388,4.54594932 C14.0031475,4.57030262 14.1167962,4.59465592 14.1655028,4.61900922 L14.3116226,4.69206912 C14.5308023,4.28618079 14.6606866,4.04264779 14.6850399,3.95335235 L14.7986886,3.64487722 C14.8636307,3.67734829 14.9366906,3.69358382 14.993515,3.70981935 C15.0503394,3.72605489 15.2045769,3.75040819 15.4481099,3.78287925 C15.3101079,4.01829449 15.1964592,4.22123865 15.099046,4.40794729 C15.1721059,4.48100719 15.2857546,4.59465592 15.4399921,4.72454018 C15.5942297,4.86254222 15.8052916,4.95995542 16.0731779,5.01677978 C16.3410642,5.08172192 16.6089505,5.09795745 16.8768368,5.07360415 C16.8443658,5.19537065 16.8200125,5.28466608 16.8037769,5.36584375 C16.7875414,5.43890365 16.7713059,5.56878792 16.7550703,5.74737878 C16.3735353,5.72302548 16.0812957,5.67431888 15.8783515,5.60125898 C15.6672896,5.52819908 15.4886987,5.43890365 15.3263434,5.33337268 C15.1639881,5.21972395 14.993515,5.07360415 14.7986886,4.87877775 L14.6850399,5.04925085 C14.7337465,5.12231075 14.7824531,5.18725288 14.8149241,5.24407725 C14.855513,5.30090162 14.9204551,5.42266812 15.0178683,5.59314122 C15.1071637,5.76361431 15.1721059,5.91785188 15.2045769,6.03150061 C15.237048,6.16138488 15.237048,6.29126915 15.1883414,6.42927118 C15.1396348,6.56727321 14.9448084,6.72151078 14.6038622,6.90821941 C14.4658602,6.73774631 14.368447,6.64033311 14.3197404,6.59974428 L14.1330317,6.45362448 C14.3846825,6.37244681 14.5308023,6.29938691 14.5632734,6.22632701 C14.6038622,6.16138488 14.6038622,6.08020721 14.5632734,5.99091178 C14.5308023,5.90161635 14.4983312,5.82855645 14.4739779,5.77173208 L14.4496246,5.71490771 C14.3440937,5.90973411 14.2060916,6.12079605 14.0356185,6.37244681 C13.8651454,6.61597981 13.7109079,6.81080621 13.5647881,6.95692601 L13.1020754,7.46834531 C12.9640733,7.36281434 12.8666601,7.29787221 12.801718,7.25728338 L12.558185,7.13551688 C13.0046622,6.78645291 13.3374906,6.43738895 13.5810236,6.09644275 L13.5810236,6.08020721 Z M11.5596997,4.95995542 L11.446051,4.72454018 L11.1944002,4.24559195 L11.0239271,3.93711682 L11.5272286,3.70170159 L12.7124226,3.09286909 C12.6231271,3.06039802 12.5094784,3.02792696 12.3633586,2.99545589 C12.4120652,2.93863152 12.4607718,2.88180716 12.4932429,2.83310056 C12.5257139,2.78439396 12.5987738,2.67074522 12.7043048,2.50027213 C12.9884266,2.56521426 13.1913708,2.61392086 13.3293728,2.65450969 C13.2969018,2.71133406 13.2725485,2.76004066 13.2563129,2.80874726 L14.5226845,2.15932593 L14.9772795,1.90767516 L15.131517,2.23238583 L15.3831678,2.71133406 L15.5211698,2.94674929 L14.9610439,3.23087112 L14.8392774,2.98733812 L14.6769221,2.67074522 L11.8357038,4.14817875 L11.9899413,4.44853612 L12.1279434,4.67583358 L11.5678175,4.96807318 L11.5596997,4.95995542 Z" id="形状" fill="#00706B"></path>
                <path d="M19.1822826,1.44496246 L20.1158257,1.29884266 L20.2051212,1.86708633 L19.271578,2.01320613 L19.1822826,1.44496246 L19.1822826,1.44496246 Z M18.5572145,1.40437363 L18.8575719,3.28769549 L18.922514,3.79099702 L19.5394643,3.69358382 L19.5232288,3.62052392 L20.4648897,3.47440412 L20.5785384,4.18876759 C20.594774,4.29429855 20.6191273,4.38359399 20.6515983,4.44853612 C20.6921872,4.50536049 20.7571293,4.56218485 20.8545425,4.60277369 C20.9519557,4.64336252 21.0980755,4.65148028 21.2929019,4.61900922 C21.4796105,4.59465592 21.7312613,4.56218485 22.0316187,4.52159602 C22.3482116,4.48100719 22.5836268,4.44853612 22.7297466,4.42418282 C22.8839842,4.39171175 22.9976329,4.35112292 23.062575,4.31053409 C23.1356349,4.26994525 23.1924593,4.20500312 23.2492837,4.12382545 C23.306108,4.04264779 23.3548146,3.83158585 23.4035212,3.48252189 C23.2249304,3.45005082 23.0138684,3.38510869 22.7703354,3.28769549 L22.7703354,3.48252189 C22.7703354,3.61240615 22.7459821,3.70170159 22.6891578,3.75852595 C22.6323334,3.82346809 22.5592735,3.85593915 22.4618603,3.88841022 C22.3644471,3.91276352 22.2020918,3.93711682 21.9666765,3.96958789 L21.4309039,4.04264779 C21.3172552,4.05888332 21.2360775,4.04264779 21.2036065,4.01829449 C21.1711354,3.98582342 21.1548999,3.94523459 21.1467821,3.90464575 L21.0656044,3.39322646 L22.1371496,3.22275336 L22.1533852,3.32016656 L22.7703354,3.22275336 L22.68104,2.74380512 L22.3806826,0.819894431 L22.3238583,0.389652799 L21.9260877,0.462712698 L20.6434806,0.665656865 L20.6028917,0.389652799 L20.5541851,3.55271368e-15 L19.9291171,0.0974131997 L20.002177,0.478948232 L20.0427658,0.754952298 L18.9549851,0.925425397 L18.4841546,0.982249763 L18.5734501,1.4124914 L18.5572145,1.40437363 Z M19.3527557,2.53274319 L20.2862988,2.38662339 L20.3755943,2.93863152 L19.4420511,3.08475132 L19.3527557,2.52462543 L19.3527557,2.53274319 Z M20.7165405,1.20954723 L21.7799679,1.0471919 L21.8692633,1.61543556 L20.8058359,1.78590866 L20.7165405,1.217665 L20.7165405,1.20954723 Z M20.8870136,2.29732796 L21.9585588,2.12685486 L22.0478542,2.67886299 L20.9844268,2.84933609 L20.8951313,2.29732796 L20.8870136,2.29732796 Z" id="形状" fill="#00706B"></path>
                <path d="M26.8048654,1.47743353 L26.9022786,1.67225993 C26.9266319,1.72096653 27.0078096,1.91579293 27.1458116,2.24050359 C27.0483984,2.42721223 26.9509852,2.57333202 26.8698076,2.67074522 C26.7805121,2.76815842 26.6749812,2.87368939 26.5450969,2.97922036 L26.8129832,1.47743353 L26.8048654,1.47743353 Z M26.3177994,4.28618079 L26.4233304,3.64487722 L26.5288614,3.05228026 C26.6343923,3.19840006 26.6993345,3.30393102 26.7318055,3.36075539 C26.7642766,3.42569752 26.7967477,3.48252189 26.8292187,3.53934626 C27.0483984,3.32828432 27.1864005,3.19028229 27.2432248,3.11722239 C27.3000492,3.05228026 27.3568736,2.98733812 27.3893446,2.93051376 L27.4299335,3.07663356 C27.4299335,3.07663356 27.446169,3.17404676 27.4542868,3.28769549 L27.584171,3.19840006 C27.6653487,3.14969346 27.8033507,3.08475132 28.0062949,3.01980919 C27.9251172,2.76815842 27.8439396,2.52462543 27.7546441,2.29732796 L27.8358218,2.13497263 C27.8682929,2.07814826 27.9169995,1.95638176 27.9981771,1.76155536 C28.1199436,1.98073506 28.2011213,2.11873709 28.2254746,2.17556146 C28.2498279,2.23238583 28.2985345,2.36227009 28.3634766,2.56521426 L28.2498279,2.76004066 C28.1686502,2.89804269 28.071237,3.02792696 27.9575883,3.15781122 C27.8439396,3.27957772 27.6815842,3.40946199 27.4948756,3.53934626 C27.6409954,3.65299499 27.7384086,3.74229042 27.7871152,3.79099702 C27.8358218,3.83970362 27.8845284,3.89652799 27.933235,3.96147012 C28.038766,3.88029245 28.1361792,3.80723255 28.2011213,3.73417265 C28.2741812,3.66111275 28.420301,3.49875742 28.6394807,3.23898889 L28.7206584,3.53122849 C28.7206584,3.53122849 28.7450117,3.64487722 28.7774827,3.79099702 C28.9723091,3.65299499 29.1590178,3.53934626 29.3132553,3.45005082 L29.256431,3.27145996 C29.256431,3.27145996 29.1671355,3.02792696 28.9966624,2.58956756 L29.1184289,2.29732796 C29.1590178,2.19179699 29.2158421,2.03755943 29.288902,1.85896856 L29.3863152,1.57484673 C29.3863152,1.57484673 29.4106685,1.49366906 29.4350218,1.42872693 C29.2401954,1.38002033 29.045369,1.32319596 28.8424249,1.2420183 L28.8180716,1.39625586 C28.801836,1.47743353 28.7531294,1.63978886 28.6800695,1.87520409 C28.6151274,1.73720206 28.558303,1.62355333 28.5014787,1.51802236 L28.3797122,1.59108226 C28.3066523,1.63978886 28.1930035,1.68037769 28.0225304,1.72096653 L28.1199436,1.47743353 C28.1199436,1.47743353 28.1280614,1.4368447 28.1605325,1.35566703 C28.1930035,1.28260713 28.2092391,1.217665 28.2335924,1.1689584 C27.9981771,1.11213403 27.8114685,1.03907413 27.6491132,0.957896464 L27.6085243,1.16084063 C27.5922888,1.2420183 27.5679355,1.32319596 27.5435822,1.39625586 C27.5192289,1.46931576 27.4948756,1.54237566 27.4624045,1.62355333 C27.3893446,1.46931576 27.3244025,1.33131373 27.2756959,1.20954723 C27.1295761,1.2907249 27.0321629,1.3394315 26.9753385,1.35566703 C26.9266319,1.37190256 26.8779253,1.3881381 26.821101,1.39625586 L26.9428675,0.722481231 L29.7272614,1.20142946 L29.2239599,4.07511885 C29.2077244,4.13194322 29.1914888,4.17253205 29.1671355,4.20500312 C29.1346645,4.23747419 29.0616046,4.23747419 28.9398381,4.20500312 C28.8343071,4.18064982 28.7287761,4.15629652 28.6151274,4.11570769 L28.663834,4.28618079 C28.7044228,4.44853612 28.7206584,4.57030262 28.7206584,4.65148028 C28.7206584,4.73265795 28.7125406,4.79760008 28.7125406,4.84630668 C29.0291335,4.87877775 29.2645487,4.87877775 29.4106685,4.86254222 C29.5567883,4.83818892 29.6542015,4.78948232 29.6947904,4.70018688 C29.7353792,4.61089145 29.7597325,4.52159602 29.7840858,4.42418282 L30.3279762,1.33131373 L30.4497427,0.738716764 L29.8571457,0.657539098 L27.0240451,0.162355333 L26.4233304,0.0405888332 L26.3259172,0.641303565 L25.8063801,3.56369956 L25.6846136,4.20500312 L26.3259172,4.31865185 L26.3177994,4.28618079 Z" id="形状" fill="#00706B"></path>
                <path d="M33.1448412,4.09947215 C33.1042524,3.83158585 33.0636635,3.64487722 33.0311925,3.55558179 L32.9662503,3.40134422 C33.18543,3.42569752 33.428963,3.40134422 33.7130849,3.32828432 C33.9890889,3.25522442 34.2569752,3.15781122 34.508626,3.04416249 C34.7602768,2.92239599 34.9794565,2.78439396 35.1742829,2.61392086 L35.2960494,2.51650766 C35.4178159,2.71945182 35.5558179,2.90616046 35.7100555,3.06851579 C35.3934626,3.25522442 35.1255763,3.40946199 34.9063966,3.53122849 C34.6872169,3.65299499 34.403095,3.76664372 34.0621488,3.87217469 C33.7212026,3.96958789 33.4127275,4.05076555 33.1448412,4.10758992 L33.1448412,4.09947215 Z M33.0717813,5.14666405 C33.1691945,5.13042852 33.3071965,5.08983968 33.4776696,5.03301532 C33.6481427,4.96807318 33.8186158,4.90313105 33.9972067,4.82195338 C34.1757976,4.74077572 34.3625062,4.63524475 34.5410971,4.51347825 C34.7278057,4.39171175 34.8333367,4.31053409 34.8820433,4.26994525 L34.9794565,4.18064982 C35.0931052,4.40794729 35.2229895,4.62712698 35.3691093,4.83007115 C35.2716961,4.87877775 35.1986362,4.91124882 35.1499296,4.93560212 L34.752159,5.13042852 C34.5654504,5.21972395 34.370624,5.30090162 34.1839153,5.37396152 C33.9972067,5.44702142 33.7699092,5.52008132 33.4939052,5.60125898 C34.0621488,5.88538081 34.6222747,6.15326711 35.1742829,6.42927118 C35.1499296,6.16138488 35.1255763,5.99091178 35.1093407,5.90973411 L35.0443986,5.59314122 C35.3041671,5.62561228 35.4746402,5.62561228 35.5558179,5.61749452 L35.6857022,5.60125898 C35.7912331,6.33997575 35.864293,6.94880824 35.9211174,7.41152094 C35.5639357,7.46022754 35.3934626,7.48458084 35.377227,7.49269861 L35.1905184,7.53328744 C35.1986362,7.46022754 35.1986362,7.39528541 35.2067539,7.33034328 C35.2067539,7.27351891 35.2067539,7.15987018 35.1905184,6.99751484 C34.9063966,6.86763058 34.5005082,6.68903971 33.9647356,6.45362448 C33.4370808,6.21820925 33.1042524,6.08832498 32.9824859,6.03150061 C32.8607194,5.98279401 32.7145996,5.94220518 32.5441265,5.90161635 C32.6009508,5.65808335 32.6171864,5.48761025 32.6171864,5.37396152 L32.6171864,5.20348842 C32.8120128,5.20348842 32.9662503,5.18725288 33.0636635,5.17101735 L33.0717813,5.14666405 Z M36.2539458,2.94674929 C36.4163011,3.06851579 36.6111275,3.18216452 36.8303072,3.28769549 C36.7897184,3.34451986 36.7653651,3.40134422 36.732894,3.45005082 C36.700423,3.49875742 36.6760697,3.56369956 36.6517164,3.63675945 C36.6192453,3.71793712 36.594892,3.86405692 36.5624209,4.08323662 C36.5299499,4.29429855 36.5543032,4.49724272 36.6111275,4.68395135 C36.6760697,4.87065998 36.732894,5.00866202 36.7816006,5.10607522 C36.8303072,5.20348842 36.8871316,5.28466608 36.9196027,5.34149045 C36.9683093,5.40643258 37.0576047,5.50384578 37.2037245,5.64184782 C37.1387824,5.66620111 37.0738402,5.69055441 37.0170159,5.72302548 C36.9520737,5.75549655 36.8059539,5.85290975 36.5624209,6.01526508 C36.3838301,5.77984985 36.245828,5.53631685 36.1402971,5.28466608 C36.0428839,5.03301532 35.9779417,4.79760008 35.9535885,4.58653815 C35.9292352,4.37547622 35.9292352,4.18064982 35.9535885,3.98582342 C35.9779417,3.79911479 36.002295,3.63675945 36.0347661,3.52311072 C36.0672372,3.40946199 36.1321793,3.21463559 36.2377103,2.93863152 L36.2539458,2.94674929 Z" id="形状" fill="#00706B"></path>
                <path d="M39.2250484,9.08378087 L39.7121144,8.62918594 L40.6213043,9.57896464 L40.1342383,10.0335596 L39.2250484,9.0756631 L39.2250484,9.08378087 Z M41.9039114,8.84836564 L40.4670667,7.32222551 L40.0936494,6.90821941 L39.6634078,7.29787221 L40.0611784,7.69564278 L41.5061408,9.2217829 L41.9201469,9.6844956 L42.3503886,9.28672504 L41.9120292,8.84836564 L41.9039114,8.84836564 Z M40.9622505,7.16798794 L42.9023967,9.22990067 L40.6700109,11.2918134 C40.596951,11.3567555 40.5482444,11.3892266 40.5076555,11.3892266 C40.4670667,11.3892266 40.4183601,11.3567555 40.3453002,11.2836956 C40.3128291,11.2593423 40.2722403,11.2106357 40.2235337,11.1456936 C40.1667093,11.0807515 40.109885,11.0158093 40.0611784,10.958985 L39.9881185,11.1375758 C39.9394119,11.234989 39.898823,11.3161667 39.8419987,11.3811088 C39.7932921,11.446051 39.7445855,11.5109931 39.7039966,11.5596997 C39.9962362,11.8357038 40.2072982,11.9899413 40.3453002,12.0386479 C40.4751845,12.0873545 40.5725977,12.1035901 40.629422,12.0792368 C40.6862464,12.0630012 40.7674241,11.9980591 40.8810728,11.9006459 L43.3651094,9.6114357 L43.7547622,9.27860727 L43.3569916,8.8808367 L41.3762566,6.77833514 L40.9460149,6.29938691 L40.5076555,6.69715748 L40.9622505,7.15987018 L40.9622505,7.16798794 Z M39.3955215,8.12588441 L38.7623357,8.71036361 L38.3970362,9.01883874 L38.7542179,9.3679027 L39.7770565,10.4556834 L40.1342383,10.8615718 L40.4751845,10.5206256 L41.1083703,9.93614637 L41.4493165,9.65202454 L41.0596637,9.2704895 L40.0368251,8.18270877 L39.7121144,7.81740927 L39.3955215,8.13400217 L39.3955215,8.12588441 Z" id="形状" fill="#00706B"></path>
                <path d="M5.03301532,16.3410642 L5.17101735,16.4790663 L5.04113308,16.7469526 L3.97770565,16.5277729 L4.00205895,16.1787089 C4.26182749,16.1787089 4.48912495,16.1300023 4.68395135,16.0325891 C4.87877775,15.9351759 5.01677978,15.7971739 5.09795745,15.6267008 C5.16289958,15.4968165 5.17913512,15.3831678 5.15478182,15.2695191 C5.13042852,15.1639881 5.07360415,15.0828104 4.97619095,15.0422216 C4.81383562,14.9610439 4.55406709,15.131517 4.19688535,15.5536409 C4.14817875,15.6104652 4.10758992,15.6510541 4.07511885,15.6835251 C3.81535032,15.9838825 3.58805286,16.1624734 3.37699092,16.2192977 C3.16592899,16.2761221 2.93863152,16.2517688 2.68698076,16.1300023 C2.35415233,15.967647 2.12685486,15.7403495 2.02132389,15.4481099 C1.91579293,15.1477526 1.93202846,14.8392774 2.09438379,14.5145668 C2.15932593,14.3765647 2.24862136,14.2466805 2.35415233,14.1411495 C2.45156553,14.0275008 2.58144979,13.9300876 2.71133406,13.8407921 L2.53274319,13.6946723 L2.66262746,13.4349038 L4.00205895,13.670319 L3.96958789,14.0599718 C3.62864169,14.0599718 3.33640209,14.1005607 3.09286909,14.2060916 C2.84933609,14.3116226 2.67886299,14.4658602 2.57333202,14.6769221 C2.50027213,14.8230419 2.48403659,14.9610439 2.51650766,15.0909282 C2.54897873,15.2289302 2.62203862,15.3263434 2.73568736,15.3831678 C2.89804269,15.4643454 3.14157569,15.3263434 3.45816859,14.9691617 C3.49875742,14.9204551 3.53122849,14.887984 3.55558179,14.8636307 C3.71793712,14.6931576 3.84782139,14.5632734 3.94523459,14.4577424 C4.04264779,14.3603292 4.13194322,14.2953871 4.18876759,14.262916 C4.31865185,14.2060916 4.45665389,14.1655028 4.60277369,14.1736206 C4.74889348,14.1736206 4.89501328,14.2142094 5.04113308,14.2872693 C5.33337268,14.4252713 5.52008132,14.6363333 5.61749452,14.9204551 C5.71490771,15.2045769 5.69055441,15.4886987 5.55255238,15.7809383 C5.48761025,15.9027048 5.41455035,16.0082358 5.32525492,16.0975312 C5.23595948,16.1868267 5.13042852,16.2680043 5.00866202,16.3329465 L5.03301532,16.3410642 Z" id="路径" fill="#00706B"></path>
                <path d="M4.79760008,17.3963739 L3.99394119,19.8560572 L2.85745386,19.8722927 L2.82498279,19.5475821 C3.11722239,19.515111 3.33640209,19.4501689 3.49063966,19.3527557 C3.63675945,19.2553425 3.74229042,19.1092227 3.80723255,18.922514 L3.82346809,18.8738074 L1.94826399,18.2812105 C1.68849546,18.2000328 1.51802236,18.1756795 1.42872693,18.2000328 C1.3394315,18.2243861 1.27448936,18.3055638 1.22578276,18.435448 L0.811776664,18.3055638 L1.2907249,16.8200125 L1.70473099,16.9498967 C1.66414216,17.0878988 1.67225993,17.1934297 1.72096653,17.2664896 C1.77779089,17.3395495 1.93202846,17.4126094 2.19991476,17.5019049 L4.06700109,18.0945018 L4.08323662,18.0457952 C4.14817875,17.8509688 4.14817875,17.672378 4.08323662,17.5100226 C4.01829449,17.3476673 3.88029245,17.1690764 3.66111275,16.97425 L3.88029245,16.730717 L4.79760008,17.3963739 L4.79760008,17.3963739 Z" id="路径" fill="#00706B"></path>
                <path d="M2.01320613,21.2117242 L2.12685486,20.5866562 L3.06039802,21.1061933 L2.01320613,21.2117242 Z M1.62355333,19.7261729 C1.62355333,19.7261729 1.59108226,19.7099374 1.56672896,19.6937019 C1.2663716,19.5232288 1.12836956,19.3202846 1.12836956,19.0929871 L0.698127931,19.0118095 L0.454594932,20.2944166 L0.868601031,20.3755943 C0.901072097,20.24571 0.933543164,20.1645323 0.982249763,20.1158257 C1.03095636,20.0752369 1.10401626,20.0590014 1.18519393,20.0833547 C1.1933117,20.0833547 1.20954723,20.0833547 1.23390053,20.0995902 C1.25013606,20.0995902 1.2663716,20.107708 1.2907249,20.1158257 L1.73720206,20.3350054 L1.55861119,21.2847841 L1.05530966,21.357844 C1.05530966,21.357844 1.00660306,21.357844 0.982249763,21.357844 C0.957896464,21.357844 0.925425397,21.357844 0.901072097,21.3416085 C0.836129964,21.3334907 0.779305597,21.3010197 0.763070064,21.2523131 C0.738716764,21.2036065 0.738716764,21.1224288 0.763070064,21.0087801 L0.763070064,20.976309 C0.763070064,20.976309 0.349063966,20.8951313 0.349063966,20.8951313 L0.0649421331,22.3969182 L0.495183765,22.4780958 C0.552008132,22.3076227 0.730598998,22.193974 1.0228386,22.1533852 L1.0471919,22.1533852 C1.0471919,22.1533852 3.76664372,21.7718501 3.76664372,21.7718501 L3.90464575,21.0656044 L1.63978886,19.7342907 L1.62355333,19.7261729 Z" id="形状" fill="#00706B"></path>
                <path d="M3.60428839,22.7540999 L3.49063966,25.3436675 L2.39474116,25.6521426 L2.28109243,25.3436675 C2.55709649,25.2300187 2.75192289,25.11637 2.86557162,24.9864857 C2.97922036,24.8484837 3.05228026,24.6861284 3.05228026,24.4831842 L3.05228026,24.4344776 C3.05228026,24.4344776 1.0958985,24.3451822 1.0958985,24.3451822 C0.819894431,24.3289466 0.641303565,24.3451822 0.560125898,24.4020065 C0.487065998,24.4507131 0.446477165,24.5481263 0.430241632,24.6942461 L0,24.6698928 L0.0730598998,23.1112816 L0.503301532,23.1275172 C0.503301532,23.273637 0.535772598,23.3710502 0.608832498,23.4278745 C0.673774631,23.4846989 0.852365497,23.51717 1.12836956,23.5334055 L3.08475132,23.6227009 L3.08475132,23.5739943 C3.10098686,23.3710502 3.05228026,23.2005771 2.95486706,23.0544573 C2.84933609,22.9164552 2.66262746,22.7784532 2.40285893,22.6404512 L2.54897873,22.3482116 L3.60428839,22.7540999 L3.60428839,22.7540999 Z" id="路径" fill="#00706B"></path>
                <path d="M3.53934626,25.7252025 L3.85593915,28.3066523 L2.85745386,28.8505426 L2.65450969,28.5826563 C2.90616046,28.3878299 3.08475132,28.1848858 3.19028229,27.9657061 C3.29581326,27.7546441 3.33640209,27.5273467 3.31204879,27.2919314 C3.29581326,27.1539294 3.25522442,27.064634 3.19840006,27.0240451 C3.13345792,26.9834563 3.01169142,26.9753385 2.82498279,26.9996918 L2.32168126,27.0565162 L2.34603456,27.2107538 C2.36227009,27.3731091 2.41097669,27.4786401 2.48403659,27.5192289 C2.56521426,27.5679355 2.71945182,27.584171 2.93863152,27.5679355 L2.97922036,27.9007639 L1.39625586,28.0874726 L1.35566703,27.7627619 C1.55861119,27.7140553 1.70473099,27.6491132 1.78590866,27.5760533 C1.86708633,27.5029934 1.89955739,27.3974624 1.88332186,27.2756959 L1.86708633,27.1214583 L1.0471919,27.2188715 C0.860483264,27.2432248 0.746834531,27.2838137 0.698127931,27.340638 C0.649421331,27.3974624 0.633185798,27.4867578 0.649421331,27.6328776 C0.681892398,27.8682929 0.795541131,28.0874726 0.99036753,28.2985345 C1.18519393,28.5095964 1.44496246,28.6800695 1.76967313,28.801836 L1.62355333,29.1265467 L0.365299499,28.801836 L0.0405888332,26.1554441 L0.470830465,26.1067375 C0.487065998,26.2528573 0.543890365,26.334035 0.616950265,26.3827416 C0.698127931,26.4233304 0.876718797,26.4233304 1.16084063,26.3827416 L2.50027213,26.2203862 C2.78439396,26.1879152 2.95486706,26.1473263 3.02792696,26.0823842 C3.09286909,26.0255598 3.11722239,25.9200289 3.10910462,25.7820268 L3.53934626,25.7333202 L3.53934626,25.7252025 Z" id="路径" fill="#00706B"></path>
                <path d="M4.78948232,32.1220026 L4.95183765,32.1220026 C4.95183765,32.1220026 5.05736862,32.4142422 5.05736862,32.4142422 L4.05076555,33.1123701 L3.77476149,32.8282483 C4.01829449,32.5765975 4.17253205,32.3493001 4.25370972,32.1544737 C4.32676962,31.967765 4.33488739,31.7729386 4.26182749,31.5943478 C4.17253205,31.3670503 4.00205895,31.237166 3.73417265,31.1965772 C3.46628636,31.1559884 3.13345792,31.2128127 2.72756959,31.3751681 C2.32979903,31.5212879 2.05379496,31.6998787 1.88332186,31.9028229 C1.72096653,32.1057671 1.68037769,32.316829 1.77779089,32.5441265 C1.85085079,32.7227173 1.95638176,32.8526016 2.10250156,32.9175437 C2.24050359,32.9906036 2.40285893,32.9906036 2.57333202,32.9175437 C2.69509852,32.8688371 2.76815842,32.8120128 2.80062949,32.7389529 C2.83310056,32.665893 2.82498279,32.560362 2.78439396,32.4304777 L3.16592899,32.2843579 L3.69358382,33.640025 L3.31204879,33.7861448 C3.23087112,33.6643783 3.14969346,33.5913184 3.06851579,33.5750828 C2.98733812,33.5507295 2.86557162,33.5750828 2.68698076,33.6481427 L1.81837973,33.9809712 L1.64790663,33.5507295 L1.87520409,33.3315498 C1.71284876,33.2422544 1.59108226,33.1367234 1.4855513,33.0149569 C1.3881381,32.8931904 1.29884266,32.7551884 1.23390053,32.5847153 C1.07966296,32.178827 1.11213403,31.7972919 1.33131373,31.4319924 C1.55861119,31.0666929 1.93202846,30.7906889 2.46780106,30.5796269 C2.96298482,30.3929183 3.41757976,30.3766828 3.83970362,30.5390381 C4.26182749,30.7013934 4.56218485,30.993633 4.73265795,31.4238747 C4.77324678,31.5294056 4.79760008,31.6511721 4.81383562,31.7567031 C4.82195338,31.8784696 4.82195338,32.0002361 4.81383562,32.1382381 L4.78948232,32.1220026 Z" id="路径" fill="#00706B"></path>
                <path d="M5.11419298,34.4842727 C5.27654832,34.3949773 5.39019705,34.3625062 5.46325695,34.3787417 C5.53631685,34.403095 5.60937675,34.4761549 5.67431888,34.6060392 C5.77984985,34.7927478 5.81232091,34.9632209 5.79608538,35.1174585 C5.77173208,35.2716961 5.68243665,35.377227 5.53631685,35.4665225 C5.37396152,35.5558179 5.21972395,35.5558179 5.06548638,35.4665225 C4.91936658,35.377227 4.76512902,35.2067539 4.62712698,34.9469854 C4.60277369,34.9063966 4.58653815,34.8739255 4.57030262,34.8495722 C4.56218485,34.8252189 4.54594932,34.8089834 4.53783155,34.7846301 L5.10607522,34.4842727 L5.11419298,34.4842727 Z M4.91936658,33.2260189 C4.98430872,33.3640209 5.00054425,33.4614341 4.96807318,33.5426118 C4.92748435,33.6237894 4.78136455,33.7293204 4.53783155,33.8673224 L3.34451986,34.508626 C3.10098686,34.6385103 2.93863152,34.7034524 2.84121832,34.6953346 C2.75192289,34.6872169 2.67074522,34.614157 2.58956756,34.4842727 L2.20803253,34.6953346 L2.97110259,36.0753549 L3.35263762,35.8724108 C3.27957772,35.7344088 3.27145996,35.6288778 3.31204879,35.5477001 C3.35263762,35.4665225 3.49063966,35.3609915 3.74229042,35.2311072 L4.13194322,35.0200453 L4.27806302,35.2960494 L3.42569752,36.8952494 L3.91276352,37.7800859 L4.28618079,37.5771418 C4.23747419,37.4716108 4.22123865,37.3741976 4.22123865,37.2767844 C4.22123865,37.187489 4.25370972,37.081958 4.31053409,36.9683093 L4.77324678,35.9941773 C4.95995542,36.1727681 5.15478182,36.2782991 5.34149045,36.3107702 C5.52819908,36.3351235 5.73114325,36.3026524 5.94220518,36.1890037 C6.22632701,36.0347661 6.38056458,35.831822 6.41303565,35.5639357 C6.45362448,35.3041671 6.36432905,34.9875742 6.15326711,34.6060392 L5.28466608,33.0311925 L4.90313105,33.2422544 L4.91936658,33.2260189 Z" id="形状" fill="#00706B"></path>
                <path d="M6.96504378,36.0185306 L7.90670471,37.3092555 L7.55764074,37.569024 C7.46022754,37.4472575 7.37093211,37.3904331 7.27351891,37.3904331 C7.18422348,37.3904331 7.02186814,37.4716108 6.80268844,37.6339661 L5.70678995,38.4132717 C5.48761025,38.5756271 5.35772598,38.6973936 5.32525492,38.786689 C5.29278385,38.8759844 5.32525492,38.9815154 5.40643258,39.1113997 L5.05736862,39.3549327 L4.11570769,38.0642078 L4.46477165,37.812557 C4.56218485,37.9343235 4.65148028,37.9911479 4.74077572,37.9911479 C4.83007115,37.9911479 4.99242648,37.9099702 5.21160618,37.7557326 L6.30750468,36.9683093 C6.53480215,36.8059539 6.65656865,36.6841874 6.68903971,36.594892 C6.72151078,36.5055966 6.68903971,36.4000656 6.60786205,36.2782991 L6.95692601,36.0266483 L6.96504378,36.0185306 Z" id="路径" fill="#00706B"></path>
                <path d="M8.18270877,38.9490443 C8.33694634,38.8272778 8.45059507,38.7704535 8.51553721,38.7704535 C8.58047934,38.7704535 8.66165701,38.8272778 8.74283467,38.9328088 C8.9295433,39.168224 8.99448544,39.4279926 8.92142554,39.7039966 C8.84836564,39.9800007 8.65353924,40.2560048 8.32882857,40.5157733 C8.01223567,40.7755418 7.70376054,40.9054261 7.41152094,40.9135439 C7.11928134,40.9216616 6.87574834,40.8080129 6.68903971,40.5807154 C6.60786205,40.4751845 6.56727321,40.3940068 6.57539098,40.3290647 C6.58350875,40.2641225 6.66468641,40.1667093 6.81080621,40.0530606 L8.19082654,38.9490443 L8.18270877,38.9490443 Z M7.78493821,37.7638504 C7.87423364,37.8774991 7.89858694,37.9667946 7.88235141,38.0479722 C7.84988034,38.1372677 7.72811384,38.2671519 7.50893414,38.4457428 L6.46174225,39.2899905 C6.23444478,39.4685814 6.08020721,39.5578768 5.99902955,39.5659946 C5.90973411,39.5741124 5.82043868,39.5254058 5.73114325,39.411757 L5.39019705,39.6796433 L6.36432905,40.8810728 C6.73774631,41.3356677 7.13551688,41.5873185 7.57387628,41.6441429 C8.00411791,41.7009672 8.44247731,41.5467297 8.8808367,41.1976657 C9.32731387,40.840484 9.5627291,40.4508312 9.60331794,40.0205895 C9.64390677,39.5984657 9.47343367,39.1519885 9.10813417,38.6973936 L8.13400217,37.5040819 L7.79305597,37.7719682 L7.78493821,37.7638504 Z" id="形状" fill="#00706B"></path>
                <path d="M13.0371332,42.3747419 L13.2076063,42.2367398 L13.4105505,42.3909774 L12.9559556,43.657349 L12.6231271,43.551818 C12.7124226,43.2433429 12.7286581,42.9673388 12.6799515,42.7156881 C12.6312449,42.4721551 12.5338317,42.2854464 12.3714764,42.1636799 C12.1604144,42.0094424 11.9168814,41.9769713 11.6489951,42.0743845 C11.3811088,42.1717977 11.1132225,42.3909774 10.8615718,42.7156881 C10.6018032,43.0485165 10.471919,43.3488739 10.4556834,43.6411135 C10.4394479,43.9252353 10.5449789,44.1606505 10.7722763,44.3230059 C10.9265139,44.4447724 11.1213403,44.5015967 11.3648733,44.5015967 C11.6002885,44.5015967 11.8438215,44.4610079 12.0873545,44.3392414 L12.2821809,44.7207764 C11.9249992,44.9074851 11.584053,45.0048983 11.2674601,44.9886627 C10.9508672,44.9724272 10.6505098,44.8668962 10.3745058,44.6477165 C9.96861743,44.3473592 9.74943774,43.9658241 9.7088489,43.519347 C9.66826007,43.0728698 9.82249763,42.6182749 10.1634438,42.1799155 C10.4881545,41.7577916 10.8696895,41.5142586 11.3242845,41.4249632 C11.7788794,41.3356677 12.1928855,41.4411987 12.5663028,41.7253205 C12.663716,41.7983804 12.7530114,41.8957936 12.8341891,41.9932068 C12.907249,42.0987378 12.9721911,42.2205043 13.0371332,42.3585063 L13.0371332,42.3747419 Z" id="路径" fill="#00706B"></path>
                <path d="M15.513052,44.282417 C15.5374053,44.5665389 15.4562277,44.8993673 15.2695191,45.2971379 C15.0828104,45.6867907 14.8717485,45.9627947 14.6363333,46.1251501 C14.400918,46.2793876 14.1655028,46.3037409 13.9300876,46.1900922 C13.6865546,46.0764435 13.5566703,45.8816171 13.532317,45.605613 C13.5079637,45.3296089 13.5891414,44.9886627 13.77585,44.5908922 C13.9706764,44.1931216 14.1817383,43.9252353 14.4171536,43.76288 C14.6525688,43.6086424 14.887984,43.5842891 15.131517,43.6898201 C15.3669323,43.8034688 15.4968165,43.9982952 15.5211698,44.282417 L15.513052,44.282417 Z M13.9706764,43.2271074 C13.5404348,43.3975805 13.2076063,43.7304089 12.9803089,44.2174749 C12.7448936,44.7126587 12.696187,45.1753714 12.8341891,45.605613 C12.9721911,46.0439724 13.2725485,46.368683 13.7352612,46.5878627 C14.1979739,46.7989247 14.6363333,46.8313957 15.0746927,46.6609226 C15.5049343,46.4904495 15.8377627,46.1657389 16.0731779,45.6705551 C16.3085932,45.1753714 16.3572998,44.7126587 16.21118,44.282417 C16.0731779,43.8440576 15.7728206,43.519347 15.3101079,43.308285 C14.8473952,43.0891053 14.4090358,43.064752 13.9787942,43.2352251 L13.9706764,43.2271074 Z" id="形状" fill="#00706B"></path>
                <path d="M17.8184978,45.2809023 C17.8672044,45.1023115 17.9321465,44.9967805 17.9889709,44.9643094 C18.053913,44.9237206 18.159444,44.9318384 18.297446,44.9643094 C18.5003902,45.0211338 18.6546277,45.118547 18.7439232,45.2403135 C18.8332186,45.3701978 18.8575719,45.5081998 18.8088653,45.6705551 C18.7520409,45.8410282 18.64651,45.954677 18.4841546,46.0033836 C18.3136815,46.0520902 18.0945018,46.0277369 17.8022622,45.9384414 C17.7535556,45.9222059 17.7210846,45.9140881 17.6967313,45.9059704 C17.672378,45.9059704 17.6561424,45.8897348 17.6317891,45.8816171 L17.8184978,45.2646668 L17.8184978,45.2809023 Z M16.7875414,44.5178323 C16.9255434,44.5665389 17.0148389,44.6395988 17.0473099,44.7207764 C17.0716632,44.8019541 17.0473099,44.980545 16.9661323,45.2403135 L16.5764795,46.5229206 C16.4953018,46.7908069 16.4222419,46.9450445 16.349182,47.0018688 C16.2842399,47.0505754 16.1705911,47.066811 16.0244713,47.0343399 L15.9027048,47.448346 L17.428845,47.9029409 L17.5506115,47.4889348 C17.4126094,47.448346 17.323314,47.3752861 17.2908429,47.2941084 C17.2664896,47.204813 17.2908429,47.0343399 17.3720206,46.7745714 L17.5019049,46.3524475 L17.8022622,46.4417429 L18.3299171,48.1708272 L19.3040491,48.4549491 L19.4258156,48.0571785 C19.3284024,48.0084719 19.2309892,47.9597653 19.1741648,47.8948232 C19.1092227,47.829881 19.0605161,47.7243501 19.0118095,47.6025836 L18.64651,46.5878627 C18.9143963,46.5878627 19.1173404,46.5310384 19.2796958,46.4173896 C19.4339333,46.3037409 19.5475821,46.1413856 19.620642,45.9140881 C19.7099374,45.6137308 19.6774663,45.3539622 19.515111,45.1429003 C19.3527557,44.9318384 19.0605161,44.7613653 18.64651,44.6395988 L16.9011901,44.1281795 L16.7794236,44.5340678 L16.7875414,44.5178323 Z" id="形状" fill="#00706B"></path>
                <path d="M21.3497263,46.0845612 C21.3740796,45.9059704 21.4146684,45.7842039 21.4552572,45.7354973 C21.5039638,45.6867907 21.5851415,45.6624374 21.706908,45.6786729 C21.8854989,45.7030262 22.0235009,45.7760861 22.1127963,45.8897348 C22.2020918,46.0033836 22.2345628,46.1495034 22.2102095,46.336212 C22.1858562,46.5310384 22.1046786,46.6771582 21.9747943,46.7664536 C21.84491,46.855749 21.6500836,46.8801023 21.4146684,46.855749 C21.3821973,46.855749 21.3497263,46.855749 21.325373,46.8395135 C21.3010197,46.8395135 21.2847841,46.8395135 21.2604308,46.8313957 L21.357844,46.0845612 L21.3497263,46.0845612 Z M20.2294745,45.500082 C20.3674765,45.5163176 20.4567719,45.5731419 20.4973608,45.6462018 C20.5298318,45.7192617 20.5379496,45.8978526 20.4973608,46.1900922 L20.3268877,47.5132881 C20.2944166,47.79741 20.24571,47.9597653 20.1888856,48.0328252 C20.1320613,48.0977673 20.0346481,48.1221206 19.896646,48.1058851 L19.8398217,48.5361267 L21.3740796,48.7228354 L21.4227862,48.3007115 C21.2847841,48.2763582 21.1954887,48.2276516 21.1548999,48.1464739 C21.114311,48.0652963 21.114311,47.8948232 21.1548999,47.6188191 L21.2036065,47.2616374 L21.7474968,47.3265795 C22.1371496,47.3752861 22.437507,47.3265795 22.6566867,47.1885775 C22.8677486,47.0505754 22.9895151,46.8151602 23.0463395,46.4823318 C23.0869283,46.1413856 23.0219862,45.8653815 22.8352776,45.6624374 C22.6485689,45.4594932 22.3644471,45.3377267 21.9585588,45.2890201 L20.2944166,45.0779582 L20.2375922,45.500082 L20.2294745,45.500082 Z" id="形状" fill="#00706B"></path>
                <path d="M25.4573162,46.1413856 C25.6115538,46.3768008 25.7008492,46.717747 25.7170847,47.1479886 C25.7333202,47.5782303 25.6764959,47.9191765 25.5384939,48.1708272 C25.4086096,48.422478 25.2056654,48.5442445 24.9458969,48.5523623 C24.6861284,48.56048 24.4750664,48.4468313 24.3127111,48.2114161 C24.1584735,47.9760008 24.0772959,47.6431724 24.0610603,47.2129308 C24.0448248,46.7745714 24.1097669,46.4336252 24.2396512,46.1900922 C24.3776532,45.9465592 24.5724796,45.8166749 24.8322482,45.8004394 C25.0920167,45.8004394 25.2949609,45.9059704 25.4573162,46.1413856 L25.4573162,46.1413856 Z M23.5983476,45.9140881 C23.2979903,46.2631521 23.1518705,46.7015115 23.1762238,47.2454018 C23.1924593,47.7892922 23.3710502,48.2276516 23.7038786,48.5442445 C24.036707,48.8608374 24.4425954,49.015075 24.9621324,48.9988394 C25.465434,48.9826039 25.8713223,48.7958953 26.1716796,48.4549491 C26.4801548,48.1058851 26.6181568,47.6675257 26.6019213,47.1236353 C26.5856857,46.579745 26.4070949,46.1495034 26.0742664,45.8247927 C25.7495558,45.500082 25.3274319,45.3539622 24.8160126,45.3701978 C24.3045933,45.3945511 23.898705,45.5731419 23.5983476,45.9222059 L23.5983476,45.9140881 Z" id="形状" fill="#00706B"></path>
                <path d="M27.8195863,46.0033836 C27.795233,45.8247927 27.795233,45.7030262 27.8358218,45.6380841 C27.8845284,45.5812597 27.9738238,45.5325531 28.1199436,45.5163176 C28.3310056,45.4838465 28.5095964,45.500082 28.6394807,45.5731419 C28.7774827,45.6543196 28.8586604,45.7679683 28.8911315,45.9384414 C28.9236025,46.1170323 28.8748959,46.2631521 28.7450117,46.3768008 C28.6070096,46.4904495 28.4040655,46.5716272 28.1037081,46.612216 C28.0550015,46.612216 28.0144127,46.6284516 27.9981771,46.6284516 C27.9738238,46.6284516 27.9494705,46.6284516 27.933235,46.6284516 L27.827704,45.9952658 L27.8195863,46.0033836 Z M26.5613324,45.7679683 C26.7074522,45.743615 26.821101,45.7679683 26.8779253,45.8329105 C26.9428675,45.8978526 26.9996918,46.0602079 27.0402807,46.336212 L27.2594604,47.6594079 C27.3000492,47.935412 27.308167,48.1140029 27.2594604,48.1870628 C27.2188715,48.2682404 27.1295761,48.3250648 26.9753385,48.3575359 L27.0483984,48.7796597 L28.6151274,48.528009 L28.5420675,48.1058851 C28.3959477,48.1302384 28.2904167,48.1058851 28.2254746,48.040943 C28.1605325,47.9760008 28.1118259,47.8055277 28.0631193,47.5376414 L27.9900594,47.1073998 L28.2985345,47.0586932 L29.5405528,48.3900069 L30.5390381,48.2195338 L30.474096,47.8055277 C30.3523295,47.8055277 30.2549163,47.8055277 30.1656208,47.7649389 C30.0844432,47.7324678 29.98703,47.6675257 29.8977345,47.5701125 L29.1184289,46.8151602 C29.3538442,46.7015115 29.5161995,46.5553917 29.6054949,46.3930363 C29.6947904,46.2225633 29.7272614,46.0277369 29.6866726,45.7842039 C29.6298482,45.4757287 29.4837284,45.256549 29.2483132,45.1347825 C29.0047802,45.013016 28.6800695,44.9967805 28.2417101,45.0617226 L26.4558015,45.3539622 L26.5288614,45.7760861 L26.5613324,45.7679683 Z" id="形状" fill="#00706B"></path>
                <path d="M32.0814138,45.8329105 L31.4888168,46.0602079 L31.4401102,45.0048983 L32.0895315,45.8329105 L32.0814138,45.8329105 Z M31.0179863,46.9450445 L31.0179863,47.0099866 C31.0179863,47.3509328 30.9286909,47.5782303 30.7338645,47.691879 L30.8962198,48.0896496 L32.1301204,47.6188191 L31.9758828,47.2291663 C31.8541163,47.2697551 31.7567031,47.2859907 31.6998787,47.2697551 C31.6349366,47.2454018 31.5943478,47.1966952 31.5618767,47.1155176 C31.5618767,47.1073998 31.5537589,47.0830465 31.5456412,47.0749287 C31.5456412,47.0586932 31.5456412,47.0424577 31.5375234,47.0181044 L31.4888168,46.5229206 L32.3980067,46.1738567 L32.7227173,46.5635094 C32.7227173,46.5635094 32.7470706,46.5959805 32.7633062,46.6203338 C32.7795417,46.6446871 32.7876595,46.6690404 32.7957772,46.7015115 C32.8201305,46.7664536 32.8201305,46.823278 32.7876595,46.8719846 C32.7551884,46.9125734 32.6902463,46.96128 32.5847153,47.0018688 L32.5441265,47.0181044 L32.698364,47.4077572 L34.1352087,46.855749 L33.9809712,46.4498607 C33.8023803,46.4904495 33.6156717,46.4011541 33.4208453,46.1819744 L33.4046097,46.1657389 L31.6349366,44.0794729 L30.961162,44.3392414 L31.0179863,46.9531622 L31.0179863,46.9450445 Z" id="形状" fill="#00706B"></path>
                <path d="M32.6821285,43.7547622 L34.995692,42.5533327 L35.8237042,43.3245206 L35.6126423,43.5842891 C35.377227,43.3975805 35.1742829,43.3001673 35.0038098,43.2676962 C34.8333367,43.2352251 34.6547458,43.2676962 34.4761549,43.3569916 L34.4274483,43.3813449 L35.344756,45.1023115 C35.4746402,45.3377267 35.5801712,45.4838465 35.6613489,45.5244353 C35.7344088,45.5650242 35.8480575,45.5569064 35.9779417,45.4919643 L36.1808859,45.8734993 L34.7846301,46.5959805 L34.5816859,46.2225633 C34.7115702,46.1495034 34.7765123,46.0683257 34.7927478,45.9790303 C34.8008656,45.8897348 34.7440412,45.7273795 34.614157,45.4838465 L33.6968493,43.76288 L33.6481427,43.7872333 C33.4614341,43.8846465 33.3396676,44.006413 33.2747255,44.1687683 C33.2016656,44.3311236 33.1773123,44.5584211 33.1935478,44.8506607 L32.8688371,44.875014 L32.6821285,43.76288 L32.6821285,43.7547622 Z" id="路径" fill="#00706B"></path>
                <path d="M35.377227,42.301682 L36.700423,41.3924921 L36.943956,41.7496738 C36.8140717,41.8389693 36.7572473,41.9282647 36.7572473,42.0175601 C36.7572473,42.1068556 36.838425,42.2692109 36.9845448,42.4965084 L37.7557326,43.6005246 C37.9099702,43.8278221 38.0317367,43.9577064 38.1210321,43.9820597 C38.2022098,44.0145307 38.3158585,43.9820597 38.4457428,43.9089998 L38.6892758,44.2661815 L37.3579621,45.1672536 L37.1144291,44.8100719 C37.2361956,44.7207764 37.2930199,44.6233632 37.3011377,44.5340678 C37.3011377,44.4366546 37.2280778,44.282417 37.0657225,44.0551196 L36.3026524,42.9511033 C36.1402971,42.7238058 36.0266483,42.5939216 35.9373529,42.5695683 C35.8480575,42.5370972 35.7425265,42.5695683 35.6126423,42.6507459 L35.3691093,42.301682 L35.377227,42.301682 Z" id="路径" fill="#00706B"></path>
                <path d="M39.0464575,40.5320088 C39.3143438,40.6375398 39.5741124,40.872955 39.8419987,41.2139012 C40.1017672,41.5629652 40.247887,41.8795581 40.2803581,42.1555622 C40.3128291,42.439684 40.2154159,42.6507459 40.0124718,42.8131013 C39.8014098,42.9673388 39.5659946,42.9835744 39.2981083,42.8780434 C39.0383398,42.7725124 38.7785712,42.545215 38.5106849,42.196151 C38.2509164,41.847087 38.1047966,41.5386119 38.0723255,41.2544901 C38.0398545,40.9703682 38.1372677,40.7593063 38.3402118,40.596951 C38.5512738,40.4427134 38.786689,40.4183601 39.0464575,40.5320088 L39.0464575,40.5320088 Z M37.3823154,41.3843743 C37.3336088,41.8389693 37.4716108,42.2773287 37.7963215,42.7156881 C38.1210321,43.1540475 38.5188027,43.413816 38.9733976,43.4949937 C39.4279926,43.5761713 39.8582342,43.4706404 40.2722403,43.170283 C40.6781286,42.8699256 40.9054261,42.4883906 40.9622505,42.0337957 C41.0109571,41.5792007 40.872955,41.1327236 40.5401266,40.7024819 C40.2154159,40.2641225 39.8176454,40.004354 39.3630504,39.9231763 C38.9084555,39.8419987 38.4782139,39.9475296 38.0723255,40.247887 C37.6583194,40.5563621 37.431022,40.9297794 37.3823154,41.3843743 L37.3823154,41.3843743 Z" id="形状" fill="#00706B"></path>
                <path d="M43.7791155,34.1108554 C44.0713551,34.0783844 44.4041835,34.159562 44.8100719,34.3462707 C45.2078424,34.5329793 45.4838465,34.7359235 45.6380841,34.9713387 C45.8004394,35.2067539 45.8247927,35.4421692 45.711144,35.6775844 C45.5974952,35.9129996 45.4026688,36.0428839 45.118547,36.0753549 C44.8344252,36.0997082 44.493479,36.0266483 44.0957084,35.8399397 C43.6979378,35.6532311 43.413816,35.4421692 43.2595784,35.2067539 C43.0972231,34.9713387 43.0809876,34.7359235 43.1865185,34.5005082 C43.2920495,34.265093 43.4949937,34.1352087 43.7709977,34.1108554 L43.7791155,34.1108554 Z M42.7238058,35.6369956 C42.8942789,36.0591194 43.2271074,36.3919478 43.7222911,36.6192453 C44.2174749,36.8546605 44.6801876,36.8952494 45.1266648,36.7572473 C45.5650242,36.6192453 45.9059704,36.3188879 46.1170323,35.864293 C46.3280942,35.4096981 46.3605653,34.9632209 46.1819744,34.5492148 C46.0115013,34.1189732 45.6786729,33.7861448 45.1916069,33.5588473 C44.6883054,33.3234321 44.2174749,33.2828432 43.7791155,33.4208453 C43.3407561,33.5588473 43.0079277,33.8673224 42.7968657,34.3219174 C42.577686,34.7765123 42.5533327,35.2229895 42.7238058,35.6451133 L42.7238058,35.6369956 Z" id="形状" fill="#00706B"></path>
                <path d="M43.6086424,32.698364 L44.4772434,30.2143274 L45.5812597,30.1087965 L45.6380841,30.4253894 C45.3539622,30.4984493 45.118547,30.6039802 44.9318384,30.7582178 C44.7532475,30.9043376 44.6152455,31.0910462 44.5421856,31.3183437 C44.493479,31.4644635 44.4853612,31.5781122 44.5178323,31.6430544 C44.5503033,31.7161143 44.6558343,31.7810564 44.8344252,31.8378808 L45.2971379,32.0002361 L45.3458445,31.8622341 C45.4026688,31.691761 45.4107866,31.5618767 45.36208,31.4725813 C45.3133734,31.3832858 45.1834891,31.3021082 44.980545,31.2209305 L45.0779582,30.9449264 L46.6284516,31.4725813 L46.5310384,31.7567031 C46.3280942,31.7161143 46.1738567,31.7161143 46.0602079,31.7567031 C45.9465592,31.7972919 45.8653815,31.8865874 45.8166749,32.0245894 L45.7679683,32.1625914 L46.3199764,32.3493001 C46.579745,32.4385955 46.7583358,32.4710666 46.8395135,32.4467133 C46.9288089,32.42236 47.0018688,32.3330645 47.0505754,32.1950625 L47.4645815,32.3411823 L46.9369267,33.8510869 L46.5229206,33.7130849 C46.5635094,33.5669651 46.5635094,33.4614341 46.5148028,33.3802564 C46.4660962,33.3071965 46.3037409,33.2260189 46.0439724,33.1367234 L44.7613653,32.7064818 C44.5015967,32.6171864 44.3311236,32.5765975 44.249946,32.6090686 C44.1687683,32.6415397 44.0875906,32.7145996 44.0307663,32.8526016 L43.6248779,32.7145996 L43.6086424,32.698364 Z" id="路径" fill="#00706B"></path>
                <path d="M45.3296089,26.4395659 L45.118547,26.3502705 L45.1510181,26.1067375 L46.4904495,25.8713223 L46.5553917,26.2122685 C46.2469165,26.2853284 45.9952658,26.4070949 45.8004394,26.5694502 C45.605613,26.7318055 45.4919643,26.9103964 45.467611,27.1052228 C45.4351399,27.3649913 45.5244353,27.584171 45.7517328,27.7708797 C45.9709125,27.9575883 46.2875054,28.0793548 46.7015115,28.1280614 C47.1236353,28.1848858 47.4564638,28.1442969 47.7162323,28.0225304 C47.9760008,27.8926462 48.1221206,27.689702 48.1627095,27.4055802 C48.1951805,27.2107538 48.1464739,27.0159274 48.0247074,26.8048654 C47.9110587,26.5938035 47.7487034,26.4152126 47.5214059,26.2609751 L47.7568211,25.9037933 C48.1058851,26.122973 48.3494181,26.366506 48.4955379,26.6425101 C48.6497755,26.9266319 48.6984821,27.2351071 48.6497755,27.584171 C48.5848333,28.0793548 48.3575359,28.4527721 47.9841186,28.7125406 C47.6025836,28.9641914 47.1398709,29.0616046 46.5878627,28.9804269 C46.0602079,28.9154848 45.6462018,28.7044228 45.3458445,28.3553589 C45.0454871,28.0062949 44.9318384,27.6004066 44.9967805,27.1376939 C45.013016,27.0159274 45.0454871,26.8941609 45.1023115,26.7805121 C45.1591358,26.6668634 45.2321957,26.5369791 45.3296089,26.4233304 L45.3296089,26.4395659 Z" id="路径" fill="#00706B"></path>
                <path d="M45.1429003,25.7657913 L45.0779582,24.2071801 L45.4919643,24.1909446 C45.500082,24.3370644 45.5487886,24.4344776 45.6299663,24.4831842 C45.711144,24.523773 45.8897348,24.5481263 46.1657389,24.5400086 L46.5148028,24.523773 L46.4660962,23.3304613 L46.1089145,23.3466969 C45.8247927,23.3629324 45.6462018,23.3872857 45.5812597,23.4441101 C45.5081998,23.5009344 45.467611,23.5983476 45.467611,23.7444674 L45.0536049,23.7688207 L44.9886627,22.2020918 L45.4189044,22.1858562 C45.4270221,22.331976 45.4757287,22.4293892 45.5487886,22.4780958 C45.6218485,22.5268024 45.8004394,22.5511557 46.0845612,22.5349202 L47.4321105,22.4780958 C47.7162323,22.4699781 47.8867054,22.437507 47.9597653,22.3806826 C48.0247074,22.3238583 48.0652963,22.2264451 48.0571785,22.0803253 L48.4874201,22.0640897 L48.5523623,23.6227009 L48.1383562,23.6389365 C48.1302384,23.4928167 48.0896496,23.4035212 48.0084719,23.3466969 C47.9272942,23.2979903 47.7487034,23.2817547 47.4726993,23.2898725 L46.8801023,23.3142258 L46.9288089,24.4994197 L47.5214059,24.4750664 C47.8055277,24.4669487 47.9760008,24.4344776 48.0490607,24.3776532 C48.1140029,24.3289466 48.1545917,24.2234157 48.1464739,24.0772959 L48.5685978,24.0610603 L48.6335399,25.6196715 L48.2032983,25.6359071 C48.1870628,25.4897873 48.1464739,25.4004918 48.073414,25.3436675 C48.0003541,25.2949609 47.8217633,25.2787253 47.5457592,25.2868431 L46.1900922,25.3436675 C45.9140881,25.3517852 45.7354973,25.3842563 45.6624374,25.4410807 C45.5893775,25.497905 45.5569064,25.5953182 45.5569064,25.741438 L45.1266648,25.7576735 L45.1429003,25.7657913 Z" id="路径" fill="#00706B"></path>
                <path d="M44.9886627,22.0316187 C44.9886627,22.0316187 44.9156028,21.706908 44.8344252,21.1792532 C44.7451297,20.6515983 44.7045409,20.4648897 44.7045409,20.4648897 L45.1347825,20.3918298 C45.1753714,20.5379496 45.2321957,20.6353628 45.3133734,20.6759516 C45.3945511,20.7165405 45.5731419,20.7084227 45.849146,20.6597161 L47.1885775,20.4243009 C47.4564638,20.3755943 47.6188191,20.3187699 47.6837612,20.2538278 C47.7487034,20.1888856 47.7730567,20.0833547 47.7487034,19.9291171 L48.178945,19.8560572 L48.4630668,21.4227862 L48.0328252,21.4958461 C48.0003541,21.3497263 47.9435298,21.2604308 47.8623521,21.219842 C47.7811744,21.1792532 47.6025836,21.1873709 47.3265795,21.2360775 L45.9952658,21.4714928 C45.7192617,21.5201994 45.5569064,21.5770237 45.4919643,21.6419659 C45.4270221,21.706908 45.4107866,21.812439 45.4270221,21.9666765 L45.0048983,22.0397364 L44.9886627,22.0316187 Z" id="路径" fill="#00706B"></path>
                <path d="M44.6801876,20.2944166 L44.3148881,19.0118095 L45.9465592,17.4207272 L45.0373693,17.672378 C44.769483,17.7454379 44.6071277,17.8184978 44.5503033,17.8834399 C44.493479,17.948382 44.4772434,18.053913 44.5097145,18.2000328 L44.1038262,18.3136815 L43.7872333,17.1934297 L44.2012394,17.0716632 C44.2418282,17.217783 44.3067703,17.2989607 44.3960658,17.323314 C44.4772434,17.3557851 44.6558343,17.323314 44.9237206,17.2502541 L47.2697551,16.6008328 L47.4321105,17.1528409 L45.2403135,19.3121668 L46.8070424,18.8656897 C47.0749287,18.7926298 47.2372841,18.7195699 47.2941084,18.6546277 C47.3509328,18.5896856 47.3590506,18.4841546 47.3265795,18.3461526 L47.7324678,18.2325039 L48.0571785,19.3608734 L47.6350546,19.4745222 C47.5944658,19.3365201 47.5214059,19.2553425 47.4321105,19.2228714 C47.342815,19.1904003 47.1723419,19.2228714 46.9044556,19.2959313 L45.605613,19.6612308 C45.3377267,19.7342907 45.1753714,19.8073506 45.1104292,19.8804105 C45.0536049,19.9534704 45.0454871,20.0508836 45.0779582,20.1970034 L44.6558343,20.3106521 L44.6801876,20.2944166 Z" id="路径" fill="#00706B"></path>
                <path d="M44.8587785,15.1883414 L45.1266648,15.7647028 L44.0632373,15.8783515 L44.8587785,15.1883414 L44.8587785,15.1883414 Z M46.0358546,16.1787089 C46.0358546,16.1787089 46.0764435,16.1787089 46.1007968,16.1787089 C46.4498607,16.1462378 46.6771582,16.2355333 46.7989247,16.4141241 L47.1966952,16.2355333 L46.6528049,15.0422216 L46.2631521,15.2126947 C46.3199764,15.3344612 46.336212,15.4237566 46.3199764,15.4886987 C46.3037409,15.5536409 46.2550343,15.5942297 46.1819744,15.6348185 C46.1657389,15.6348185 46.1576211,15.6429363 46.1332678,15.6510541 C46.1170323,15.6510541 46.1007968,15.6591718 46.0845612,15.6672896 L45.5812597,15.7484673 L45.1834891,14.8636307 L45.5569064,14.5145668 C45.5569064,14.5145668 45.5893775,14.4820957 45.6137308,14.4739779 C45.6380841,14.4577424 45.6624374,14.4415069 45.6867907,14.4333891 C45.7517328,14.400918 45.8085572,14.400918 45.8572638,14.4333891 C45.8978526,14.4577424 45.9465592,14.5308023 45.9952658,14.6282155 L46.0115013,14.6606866 L46.4011541,14.4902135 L45.7679683,13.1020754 L45.3701978,13.2806662 C45.4270221,13.4592571 45.3458445,13.6459657 45.1347825,13.8489099 L45.118547,13.8489099 C45.118547,13.8489099 43.1053409,15.7159962 43.1053409,15.7159962 L43.3975805,16.3654175 L46.0358546,16.1705911 L46.0358546,16.1787089 Z" id="形状" fill="#00706B"></path>
                <path d="M39.2575195,39.3062261 L40.1261205,38.2833875 L42.3747419,38.7217469 L41.6522606,38.1210321 C41.4411987,37.950559 41.2869611,37.8450281 41.2057835,37.8369103 C41.116488,37.8369103 41.0190748,37.8774991 40.9216616,37.9830301 L40.596951,37.7151438 L41.3519033,36.8221895 L41.6847317,37.0981935 C41.5954363,37.2118423 41.5629652,37.3173732 41.5873185,37.3985509 C41.6116718,37.4878463 41.7334383,37.6177306 41.9445002,37.7963215 L43.8034688,39.3468149 L43.4381693,39.7851743 L40.4102423,39.2006951 L41.6603784,40.2397692 C41.8714403,40.4102423 42.0175601,40.5076555 42.1149733,40.5157733 C42.2042688,40.5157733 42.301682,40.4751845 42.3990952,40.3615357 L42.7238058,40.629422 L41.9607358,41.5304941 L41.6279073,41.2544901 C41.7172028,41.1408413 41.7496738,41.0353104 41.7253205,40.9541327 C41.7009672,40.8648373 41.5792007,40.734953 41.3681388,40.5563621 L40.3290647,39.7039966 C40.1180027,39.5254058 39.9637652,39.4279926 39.8744697,39.4198748 C39.7851743,39.411757 39.6877611,39.4604636 39.5984657,39.5741124 L39.2656372,39.2981083 L39.2575195,39.3062261 Z" id="路径" fill="#00706B"></path>
                <path d="M4.91124882,24.6617751 C4.91124882,35.3691093 13.6216124,44.0794729 24.3289466,44.0794729 C35.0362808,44.0794729 43.7466444,35.3691093 43.7466444,24.6617751 C43.7466444,13.9544409 35.0362808,5.24407725 24.3289466,5.24407725 C13.6216124,5.24407725 4.91124882,13.9544409 4.91124882,24.6617751 Z M5.31713715,24.6617751 C5.31713715,14.1817383 13.8407921,5.64996558 24.3289466,5.64996558 C34.8171011,5.64996558 43.3407561,14.1817383 43.3407561,24.6617751 C43.3407561,35.1418118 34.8171011,43.6735845 24.3289466,43.6735845 C13.8407921,43.6735845 5.31713715,35.1418118 5.31713715,24.6617751 Z" id="形状" fill="#00706B"></path>
                <path d="M7.69564278,31.3183437 C9.30296057,32.6902463 11.5434642,33.8267336 14.2060916,34.6303925 C15.4156388,37.3823154 17.079781,39.517288 19.0118095,40.7024819 C17.6155536,39.1763418 16.4303597,37.2280778 15.5455231,34.995692 C16.6251861,35.2635783 17.7616734,35.4746402 18.9468673,35.6288778 C20.5135963,39.2169306 22.8596309,41.7577916 25.5628472,42.5289794 C25.1569588,42.5533327 24.7429527,42.5695683 24.3289466,42.5695683 C16.7875414,42.5695683 10.3420347,37.9099702 7.69564278,31.3183437 Z M42.2448576,24.7754238 C42.1880332,33.1448412 36.3919478,40.1585916 28.5907741,42.058149 C25.8388512,41.1408413 23.4197568,38.924691 21.6419659,35.864293 C22.193974,35.8886463 22.7622177,35.9048819 23.3304613,35.9048819 C31.2777549,35.9048819 38.0398545,33.2503722 40.5888332,29.5486706 C37.0170159,32.4710666 31.2939904,34.3625062 24.8322482,34.3625062 C23.4197568,34.3625062 22.0478542,34.265093 20.7246582,34.0946199 C20.3268877,33.2260189 19.9778237,32.3087112 19.6855841,31.3508148 C21.5283171,31.6024655 23.4928167,31.7079965 25.5303761,31.6268188 C33.2747255,31.3264615 39.7770565,28.4933609 42.2448576,24.7754238 Z M14.157385,29.98703 C15.1802236,30.3766828 16.2923576,30.7013934 17.4694338,30.961162 C17.6642602,31.9028229 17.9077932,32.803895 18.191915,33.6643783 C16.9904856,33.396492 15.8377627,33.0717813 14.7580998,32.6740107 C14.5145668,31.8135275 14.3116226,30.9124554 14.157385,29.98703 Z M18.1513262,7.84176257 C14.5876267,10.6748631 12.1198256,16.836248 12.1198256,23.9798827 C12.1198256,25.465434 12.2253566,26.9185142 12.4283007,28.2985345 C10.8291007,27.6572309 9.40849154,26.8616898 8.21517984,25.9524999 C9.18931184,27.2594604 10.6992164,28.4040655 12.5987738,29.3213731 C12.7416465,30.0876903 12.9156914,30.8280306 13.112596,31.5423941 L13.2610356,32.0638641 L12.8763265,31.8886457 C10.185466,30.6328585 8.0421734,28.9583774 6.71832025,27.0258539 L6.53480215,26.7480411 C6.45362448,26.0661487 6.41303565,25.3680208 6.41303565,24.6617751 C6.41303565,16.941779 11.2999312,10.3582702 18.1513262,7.84176257 Z M24.3370644,6.74586408 C33.1367234,6.74586408 40.4589489,13.1020754 41.9607358,21.4796105 C39.4929347,26.2122685 32.4385955,29.8165569 23.9961182,30.1493853 C22.3888004,30.2143274 20.8220714,30.1575031 19.3202846,29.98703 C18.8169831,27.9738238 18.5490968,25.7982624 18.5490968,23.5252877 C18.5490968,17.2746074 20.6028917,11.722055 23.7688207,8.25576867 C19.7505262,10.7235697 16.8768368,17.2827252 16.8768368,24.9864857 C16.8768368,26.610039 17.0067211,28.1848858 17.2421363,29.6785548 C16.105649,29.4674929 15.0259861,29.1996066 14.0031475,28.8667782 C13.8651454,27.7546441 13.7920855,26.610039 13.7920855,25.4410807 C13.7920855,16.1381201 18.3299171,8.41000624 24.3127111,6.75398184 L24.3208289,6.74586408 L24.3370644,6.74586408 Z" id="形状结合" fill="url(#radialGradient-1)"></path>
                <path d="M77.0376054,31.8622341 L77.3136095,31.1478706 L78.5393922,31.1478706 L79.6677618,35.2473428 L78.3120948,35.7587621 C77.8331465,34.8414544 77.2324318,34.1352087 76.5099506,33.6237894 C75.7955871,33.1123701 75.0406348,32.8607194 74.2450937,32.8607194 C73.644379,32.8607194 73.1654307,32.9824859 72.808249,33.2503722 C72.4429495,33.5182585 72.2643586,33.8592047 72.2643586,34.2894463 C72.2643586,34.995692 73.3683749,35.6045245 75.5845252,36.1402971 C75.9011181,36.2214747 76.1446511,36.2782991 76.3070064,36.3270057 C77.8899709,36.732894 78.9858694,37.2361956 79.5865841,37.8531458 C80.1954166,38.4863316 80.495774,39.3386971 80.495774,40.4427134 C80.495774,41.9120292 80.0411791,43.0891053 79.1238714,43.9901774 C78.2146816,44.8831318 77.0051344,45.3296089 75.5033475,45.3296089 C74.8539262,45.3296089 74.2207404,45.2484313 73.6119079,45.0779582 C73.0111932,44.9074851 72.4185962,44.6558343 71.8584703,44.3311236 L71.6392906,45.1997247 L70.4297434,45.1997247 L68.8792499,40.0611784 L70.3972723,39.5091702 C70.9817515,40.7430708 71.696115,41.7009672 72.5484805,42.3666241 C73.3927282,43.0403987 74.2938003,43.3732272 75.2516968,43.3732272 C75.9173536,43.3732272 76.4855973,43.1946363 76.9320745,42.8374546 C77.3866694,42.4802728 77.6139668,42.058149 77.6139668,41.5792007 C77.6139668,40.840484 76.6560704,40.2235337 74.7483952,39.7202322 C74.4886267,39.65529 74.2938003,39.6065834 74.1557983,39.5659946 C73.2222551,39.3143438 72.4754206,39.0951641 71.9234124,38.9003377 C71.3714043,38.7055113 70.9898693,38.5188027 70.7625718,38.3564474 C70.2836236,38.0073834 69.9183241,37.5771418 69.6504378,37.0413692 C69.398787,36.5137143 69.2770205,35.9292352 69.2770205,35.2879316 C69.2770205,34.02156 69.7153799,32.9824859 70.5920987,32.1463559 C71.4688175,31.3102259 72.5971871,30.8962198 73.9609719,30.8962198 C74.5210978,30.8962198 75.0568704,30.9773975 75.5601719,31.1316351 C76.0715912,31.2939904 76.566775,31.5375234 77.0376054,31.8459985 L77.0376054,31.8622341 Z" id="路径" fill="#00706B"></path>
                <path d="M81.2669618,33.8104981 L90.0585031,33.8104981 L91.2761681,37.2524311 L90.2533295,37.674555 C89.8393234,36.8221895 89.3928462,36.2214747 88.9382513,35.864293 C88.4755386,35.5152291 87.8991772,35.3366382 87.209167,35.3366382 L87.0468117,35.3366382 L87.0468117,41.5629652 C87.0468117,42.439684 87.1361071,42.9916921 87.3065802,43.2271074 C87.4770533,43.4625226 87.8098817,43.5842891 88.3050655,43.6086424 L88.3050655,45.0048983 L83.0203994,45.0048983 L83.0203994,43.6086424 C83.5074654,43.5842891 83.8402939,43.4625226 84.0188847,43.2352251 C84.1974756,43.0079277 84.2786533,42.4478018 84.2786533,41.5629652 L84.2786533,35.3366382 L84.1162979,35.3366382 C83.41817,35.3366382 82.8418086,35.5071113 82.3709781,35.864293 C81.9163832,36.213357 81.4861415,36.8140717 81.0640177,37.674555 L80.0411791,37.2524311 L81.2507263,33.8104981 L81.2669618,33.8104981 Z" id="路径" fill="#00706B"></path>
                <path d="M95.976355,39.5903479 L93.8170291,39.5903479 L94.9697519,36.3757123 L95.976355,39.5903479 Z M91.2761681,41.709085 C91.2599326,41.7577916 91.2274615,41.8227337 91.1949904,41.9120292 C90.7972199,42.9511033 90.2208584,43.5274647 89.4740239,43.6411135 L89.4740239,45.013016 L93.92256,45.013016 L93.92256,43.6735845 C93.4760829,43.6735845 93.1676077,43.5924069 92.9971346,43.4787581 C92.8266615,43.3569916 92.7454839,43.1459297 92.7454839,42.8618079 C92.7454839,42.821219 92.7454839,42.7643947 92.7454839,42.7075703 C92.7536016,42.6507459 92.7698372,42.5939216 92.7860727,42.5289794 L93.2406676,40.9703682 L96.4958921,40.9703682 L97.056018,42.5289794 C97.0803713,42.5939216 97.1047246,42.6669815 97.1128423,42.7562769 C97.1290779,42.8374546 97.1371956,42.92675 97.1371956,43.0241632 C97.1371956,43.2595784 97.056018,43.4219338 96.9017804,43.5274647 C96.7475428,43.6248779 96.4796565,43.6735845 96.0981215,43.6735845 L95.9682372,43.6735845 L95.9682372,45.013016 L101.15549,45.013016 L101.15549,43.6411135 C100.53854,43.5680536 100.059592,43.0809876 99.7348809,42.1799155 L99.7186454,42.1149733 L96.7394251,33.8186158 L94.3040951,33.8186158 L91.2599326,41.709085 L91.2761681,41.709085 Z" id="形状" fill="#00706B"></path>
                <path d="M100.587246,33.8104981 L109.378788,33.8104981 L110.596453,37.2524311 L109.565496,37.674555 C109.15149,36.8221895 108.713131,36.2214747 108.258536,35.864293 C107.795823,35.5152291 107.219462,35.3366382 106.529452,35.3366382 L106.367096,35.3366382 L106.367096,41.5629652 C106.367096,42.439684 106.440156,42.9916921 106.618747,43.2271074 C106.797338,43.4625226 107.122049,43.5842891 107.62535,43.6086424 L107.62535,45.0048983 L102.340684,45.0048983 L102.340684,43.6086424 C102.82775,43.5842891 103.160578,43.4625226 103.339169,43.2352251 C103.509642,43.0079277 103.598938,42.4478018 103.598938,41.5629652 L103.598938,35.3366382 L103.436583,35.3366382 C102.738455,35.3366382 102.162093,35.5071113 101.69938,35.864293 C101.236668,36.213357 100.798308,36.8140717 100.39242,37.674555 L99.3695814,37.2524311 L100.579129,33.8104981 L100.587246,33.8104981 Z" id="路径" fill="#00706B"></path>
                <path d="M110.312331,33.8104981 L119.120108,33.8104981 L120.540717,37.187489 L119.574703,37.7313793 C118.998341,36.8708961 118.381391,36.2295925 117.707616,35.8074687 C117.033842,35.3853448 116.287007,35.1742829 115.483348,35.1742829 C115.028753,35.1742829 114.71216,35.2554605 114.541687,35.4259336 C114.379332,35.5964067 114.298154,35.9941773 114.298154,36.6030098 L114.298154,38.2103276 L114.809574,38.2103276 C115.353464,38.2103276 115.718763,38.0966788 115.91359,37.8693814 C116.100298,37.6502017 116.222065,37.1793712 116.254536,36.4731255 L117.391023,36.4731255 L117.391023,41.5304941 L116.254536,41.5304941 C116.189594,40.8567195 116.035356,40.3777713 115.808059,40.0774139 C115.580761,39.7770565 115.247933,39.6309367 114.809574,39.6309367 L114.298154,39.6309367 L114.298154,42.2529754 C114.298154,42.8536901 114.379332,43.2433429 114.549805,43.413816 C114.71216,43.5842891 115.044989,43.6735845 115.515819,43.6735845 C116.319478,43.6735845 117.106902,43.3975805 117.902443,42.8536901 C118.681748,42.3097997 119.355523,41.5548474 119.915649,40.5807154 L120.946605,41.1570769 L119.33117,45.013016 L110.304213,45.013016 L110.304213,43.6329957 C110.783161,43.6167602 111.11599,43.4949937 111.278345,43.2676962 C111.456936,43.0403987 111.538114,42.4640373 111.538114,41.5629652 L111.538114,37.2686666 C111.538114,36.3594768 111.456936,35.7912331 111.278345,35.5558179 C111.11599,35.3204027 110.783161,35.2067539 110.304213,35.1986362 L110.304213,33.8104981 L110.312331,33.8104981 Z" id="路径" fill="#00706B"></path>
                <path d="M136.321655,31.6268188 L136.605777,31.0504574 L137.847795,31.0504574 L139.057343,35.7506443 L137.53932,36.3432412 C136.92237,35.0931052 136.297302,34.1839153 135.647881,33.6237894 C135.006577,33.0555458 134.284096,32.7795417 133.488555,32.7795417 C132.473834,32.7795417 131.694528,33.2341366 131.134402,34.1433265 C130.582394,35.0525164 130.30639,36.3594768 130.30639,38.0723255 C130.30639,39.7851743 130.574276,41.0353104 131.110049,41.9201469 C131.637704,42.8049835 132.417009,43.2352251 133.43173,43.2352251 C134.243507,43.2352251 134.88481,43.0241632 135.363759,42.5939216 C135.842707,42.1717977 136.08624,41.603554 136.08624,40.8891906 C136.08624,40.385889 135.964473,40.0287073 135.712823,39.8095276 C135.46929,39.5903479 135.047166,39.4685814 134.462687,39.4442281 L134.462687,37.8369103 L140.567247,37.8369103 L140.567247,39.4442281 C139.966532,39.5741124 139.568762,39.7770565 139.373935,40.0368251 C139.179109,40.2884758 139.073578,40.7998951 139.073578,41.5304941 L139.073578,45.1997247 L137.109079,45.1997247 L136.589541,44.0632373 C136.005062,44.5097145 135.404348,44.8344252 134.77928,45.0373693 C134.162329,45.2403135 133.480437,45.3377267 132.725485,45.3377267 C130.915223,45.3377267 129.478378,44.6639521 128.398715,43.3245206 C127.310934,41.9769713 126.767044,40.1910626 126.767044,37.9667946 C126.767044,35.8886463 127.392112,34.1839153 128.650366,32.8607194 C129.900502,31.5456412 131.491584,30.8799843 133.439848,30.8799843 C133.918796,30.8799843 134.397744,30.9449264 134.860457,31.0585752 C135.32317,31.1722239 135.810236,31.3670503 136.329773,31.6268188 L136.321655,31.6268188 Z" id="路径" fill="#00706B"></path>
                <path d="M144.350126,36.6111275 C144.350126,36.0266483 144.439422,35.6451133 144.609895,35.4746402 C144.780368,35.3041671 145.113196,35.2229895 145.624616,35.2229895 C146.330861,35.2229895 146.907223,35.377227 147.321229,35.6775844 C147.735235,35.9779417 147.946297,36.3919478 147.946297,36.9277204 C147.946297,37.5121996 147.702764,37.9586768 147.20758,38.2509164 C146.712396,38.543156 145.965562,38.6892758 144.958959,38.6892758 C144.796604,38.6892758 144.674837,38.6892758 144.593659,38.6892758 C144.512482,38.6892758 144.431304,38.681158 144.358244,38.6730403 L144.358244,36.6192453 L144.350126,36.6111275 Z M140.291243,35.2148717 C140.802662,35.2311072 141.143609,35.3528737 141.314082,35.588289 C141.484555,35.8237042 141.565732,36.3757123 141.565732,37.2686666 L141.565732,41.5629652 C141.565732,42.439684 141.484555,42.9998099 141.314082,43.2271074 C141.143609,43.4544048 140.802662,43.5842891 140.291243,43.6005246 L140.291243,44.9967805 L145.657087,44.9967805 L145.657087,43.6005246 C145.145668,43.5761713 144.804721,43.4544048 144.618013,43.2271074 C144.44754,42.9998099 144.358244,42.439684 144.358244,41.5629652 L144.358244,40.1585916 L145.429789,40.1585916 L148.814898,45.0048983 L152.216242,45.0048983 L152.216242,43.6329957 C151.842825,43.6005246 151.518114,43.5112292 151.250228,43.3569916 C150.982342,43.2027541 150.722573,42.9673388 150.454687,42.6101571 L148.311597,39.8257631 C149.147726,39.5822301 149.772795,39.2088129 150.170565,38.7298646 C150.576453,38.2427986 150.779398,37.6177306 150.779398,36.8546605 C150.779398,35.8237042 150.414098,35.0687519 149.691617,34.5654504 C148.961018,34.0621488 147.865119,33.8023803 146.387686,33.8023803 L140.291243,33.8023803 L140.291243,35.2067539 L140.291243,35.2148717 Z" id="形状" fill="#00706B"></path>
                <path d="M151.786001,33.8104981 L157.16808,33.8104981 L157.16808,35.2148717 C156.656661,35.2311072 156.307597,35.3528737 156.137124,35.5964067 C155.958533,35.831822 155.861119,36.3919478 155.861119,37.2605489 L155.861119,41.5548474 C155.861119,42.4234485 155.958533,42.9835744 156.137124,43.2189896 C156.307597,43.4544048 156.656661,43.5842891 157.16808,43.6086424 L157.16808,45.0048983 L151.786001,45.0048983 L151.786001,43.6086424 C152.29742,43.5842891 152.638366,43.4544048 152.816957,43.2189896 C152.995548,42.9835744 153.084843,42.4234485 153.084843,41.5548474 L153.084843,37.2605489 C153.084843,36.3838301 152.995548,35.8237042 152.816957,35.5964067 C152.638366,35.3691093 152.29742,35.2311072 151.786001,35.2148717 L151.786001,33.8104981 Z" id="路径" fill="#00706B"></path>
                <path d="M161.649087,36.594892 C161.649087,35.969824 161.730265,35.5801712 161.876385,35.4259336 C162.030622,35.2635783 162.339097,35.1905184 162.80181,35.1905184 C163.824649,35.1905184 164.636425,35.5639357 165.229022,36.3026524 C165.829737,37.0494869 166.121977,38.0804433 166.121977,39.4036393 C166.121977,40.7268352 165.829737,41.7496738 165.229022,42.4965084 C164.644543,43.2433429 163.832766,43.6167602 162.80181,43.6167602 C162.339097,43.6167602 162.030622,43.5437003 161.876385,43.3894627 C161.722147,43.2352251 161.649087,42.8455723 161.649087,42.2286221 L161.649087,36.5867742 L161.649087,36.594892 Z M157.687617,35.1905184 C158.158447,35.1905184 158.47504,35.3204027 158.637396,35.5395824 C158.807869,35.7668798 158.880929,36.3432412 158.880929,37.2605489 L158.880929,41.5548474 C158.880929,42.4721551 158.807869,43.0403987 158.637396,43.2676962 C158.47504,43.4949937 158.158447,43.6086424 157.687617,43.6248779 L157.687617,45.0048983 L162.899223,45.0048983 C164.888076,45.0048983 166.406098,44.52595 167.461408,43.5680536 C168.5086,42.6020393 169.036255,41.222019 169.036255,39.4036393 C169.036255,37.5852595 168.5086,36.2052392 167.45329,35.2473428 C166.406098,34.2894463 164.879958,33.8023803 162.899223,33.8023803 L157.687617,33.8023803 L157.687617,35.1905184 L157.687617,35.1905184 Z" id="形状" fill="#00706B"></path>
                <path d="M82.4034492,21.1061933 L82.4034492,17.566847 L84.1406512,17.566847 C83.6535852,18.0701485 83.1908725,18.4760369 82.7281598,18.7682765 C83.6048786,19.5475821 84.1325335,20.0752369 84.3354776,20.3593587 C84.5465396,20.6353628 84.7170127,20.8870136 84.8712502,21.1061933 L82.4034492,21.1061933 L82.4034492,21.1061933 Z M73.644379,23.8499984 L75.868647,23.7850563 L85.7398513,23.7850563 L88.0858858,23.8499984 L88.0858858,21.0412511 L86.1863284,21.0980755 C86.6165701,20.6110095 87.0062229,20.1726501 87.3796401,19.7829973 L86.7545721,19.1416937 L85.8616178,18.2487394 C85.715498,18.1107374 85.5206716,17.8753221 85.2690208,17.5587292 L87.1604604,17.6642602 L87.1604604,14.7580998 L85.5450249,14.8230419 L82.3953314,14.8230419 L82.3953314,12.2334743 L85.6992624,12.2334743 L87.8991772,12.3633586 L87.8991772,9.42472707 L85.5450249,9.49778697 L76.1446511,9.49778697 L73.9772074,9.42472707 L73.9772074,12.314652 L76.1446511,12.2334743 L79.3998755,12.2334743 L79.3998755,14.8230419 L76.8021902,14.8230419 L74.6266287,14.7580998 L74.6266287,17.6317891 L76.8021902,17.5587292 L79.3998755,17.5587292 L79.3998755,21.0980755 L75.8930003,21.0980755 L73.644379,21.0412511 L73.644379,23.8499984 L73.644379,23.8499984 Z M70.2592703,7.86611587 L70.2592703,25.5141406 L70.1780926,28.5745386 L73.2303729,28.5745386 L73.2303729,28.2092391 L88.5161274,28.2092391 L88.5161274,28.7612472 L91.6333498,28.7612472 L91.5440544,25.7089669 L91.5440544,7.86611587 L91.6333498,5.01677978 L89.1411955,5.10607522 L72.7108358,5.10607522 L70.1780926,5.01677978 L70.2592703,7.86611587 L70.2592703,7.86611587 Z M73.2303729,7.97976461 L88.5161274,7.97976461 L88.5161274,25.3842563 L73.2303729,25.3842563 L73.2303729,7.97976461 Z" id="形状" fill="#00706B"></path>
                <path d="M101.731852,22.9732796 C103.615173,21.9098522 105.060136,20.9600735 106.091092,20.1320613 C106.034268,19.9291171 105.95309,19.7424085 105.855677,19.5638176 C104.467539,20.4243009 103.217403,21.1711354 102.113387,21.7880857 C101.001253,22.3969182 99.3776992,23.0463395 97.2427266,23.7688207 C97.0803713,23.3548146 96.9098982,22.9976329 96.7475428,22.6891578 C96.5933053,22.3725649 96.2523591,21.7962034 95.7247042,20.9681912 C96.7313073,20.7896004 97.5999083,20.5866562 98.3467428,20.3593587 C99.0854596,20.1239435 99.9946495,19.758644 101.08243,19.2472247 C102.153975,18.7358054 103.201167,18.1350907 104.199653,17.461316 L103.923649,17.2015475 C102.68163,17.704849 101.731852,18.053913 101.074312,18.2487394 C100.424891,18.4516836 99.3614637,18.7520409 97.9002657,19.1579293 C97.7379103,18.7926298 97.5999083,18.4598013 97.4619063,18.1675617 C97.332022,17.8753221 96.9586048,17.2421363 96.3497723,16.2842399 C97.1534312,16.21118 98.2574474,16.0488246 99.6537033,15.8215272 C101.049959,15.5942297 102.819632,14.9123373 104.962723,13.77585 L101.261021,13.77585 L99.0935774,13.8407921 L99.0935774,10.9995738 L101.261021,11.0726337 L111.757293,11.0726337 L114.184506,10.9995738 L114.184506,13.8407921 L111.757293,13.77585 L108.055592,13.77585 C108.372185,14.0356185 108.713131,14.3116226 109.094666,14.5795089 C108.185476,15.1152815 107.308757,15.6348185 106.472627,16.1300023 C107.251933,16.7225993 107.714646,17.1447231 107.868883,17.3801384 L108.364067,18.0863841 C110.320449,16.6901282 111.448818,15.8215272 111.789764,15.4724632 L113.0399,14.2466805 C113.291551,14.5795089 113.535084,14.8311597 113.746146,15.0503394 C113.957208,15.2695191 114.590394,15.7647028 115.613232,16.5358906 C114.452392,17.3314318 113.429553,18.0457952 112.552834,18.64651 C112.698954,19.1822826 112.974958,19.9615882 113.348376,21.0087801 C113.729911,22.0397364 114.46051,23.0382217 115.532055,23.9880004 C116.6036,24.9377791 117.764441,25.6764959 119.006459,26.2041507 C118.592453,26.6912167 118.259624,27.097105 117.999856,27.4218157 C117.748205,27.7465264 117.382906,28.3228878 116.887722,29.1265467 C115.256051,28.0874726 114.062739,27.1295761 113.307787,26.2690928 C112.544717,25.4167274 111.935884,24.523773 111.473172,23.6227009 C111.002341,22.7053933 110.563982,21.5607882 110.158093,20.1726501 L109.232668,20.6921872 C109.29761,21.1548999 109.338199,21.5770237 109.37067,21.9585588 C109.403141,22.3400938 109.427494,23.0544573 109.435612,24.1178847 C109.435612,25.1731944 109.37067,26.0417954 109.240786,26.7074522 C109.119019,27.3812269 108.786191,27.9900594 108.250418,28.525832 C107.722763,29.0697223 106.464509,29.3457264 104.459421,29.3700797 C104.215888,28.2254746 104.029179,27.5029934 103.907413,27.2107538 L103.420347,26.0499131 C104.743543,26.2690928 105.547202,26.2609751 105.871913,26.0255598 C106.196623,25.7739091 106.39145,25.3923741 106.456392,24.8647192 C106.521334,24.3451822 106.545687,23.9230583 106.545687,23.6145832 L106.545687,23.2979903 C105.644615,23.9392938 104.516245,24.6455395 103.160578,25.4004918 C101.796794,26.1716796 100.644071,26.7236878 99.6942921,27.0727517 L96.3822433,28.3634766 C96.0250616,27.5435822 95.7247042,26.9672208 95.4974068,26.6343923 L94.7181012,25.4735517 C97.5349662,24.8809548 99.8891185,24.0529426 101.756205,22.9895151 L101.731852,22.9732796 Z M95.2944626,12.5987738 L95.351287,11.1862824 L95.351287,8.28012197 L95.2944626,6.37244681 L98.1194454,6.46986001 L104.857192,6.46986001 C104.548717,6.10456051 104.102239,5.67431888 103.525878,5.15478182 C103.88306,5.00866202 104.215888,4.86254222 104.491892,4.71642242 C104.776014,4.57842039 105.360493,4.21312089 106.237212,3.65299499 C107.349346,4.65959805 108.177358,5.42266812 108.688778,5.92596965 C108.429009,6.10456051 108.209829,6.29126915 108.031238,6.47797778 L115.247933,6.47797778 L117.894325,6.38056458 L117.829383,8.28823974 L117.829383,11.2187535 L117.894325,12.7043048 L114.687807,12.7043048 L114.744631,11.2187535 L114.744631,9.3191961 L98.444156,9.3435494 L98.444156,11.1944002 L98.5009804,12.6068916 L95.2944626,12.6068916 L95.2944626,12.5987738 Z" id="形状" fill="#00706B"></path>
                <path d="M125.086666,10.4232124 L129.892384,10.4232124 L129.892384,13.4998459 L125.086666,13.4998459 L125.086666,10.4232124 L125.086666,10.4232124 Z M121.985679,9.67637784 L121.985679,19.9697059 L121.920737,22.7135111 L125.078548,22.7135111 L125.078548,22.3076227 L129.884266,22.3076227 L129.884266,26.1960329 C129.884266,26.8129832 129.941091,27.3000492 130.062857,27.6653487 C130.184624,28.0306482 130.484981,28.3715944 130.955811,28.663834 C131.43476,28.9641914 132.157241,29.1103112 133.131373,29.1103112 C134.113623,29.1103112 135.371876,29.1427822 136.92237,29.1752533 C138.52157,29.2239599 139.722999,29.2401954 140.494187,29.1914888 C141.281611,29.1427822 141.874208,29.0372513 142.26386,28.8830137 C142.653513,28.7206584 143.010695,28.4365365 143.343523,28.0550015 C143.68447,27.6572309 144.098476,26.5450969 144.609895,24.7267172 C143.716941,24.4101243 142.710338,23.8905872 141.57385,23.1599882 L141.411495,24.2152979 C141.338435,24.9053081 141.127373,25.3842563 140.802662,25.6521426 C140.486069,25.9200289 140.063946,26.090502 139.552526,26.1392086 C139.041107,26.2041507 138.196859,26.2122685 137.019783,26.1797974 L134.259742,26.1148553 C133.659028,26.090502 133.293728,25.9768532 133.155726,25.7901446 C133.017724,25.6115538 132.944664,25.3923741 132.944664,25.1650766 L132.944664,22.3238583 L138.424157,22.3238583 L138.424157,22.8271598 L141.606321,22.8271598 L141.533261,20.1888856 L141.533261,9.69261337 L141.606321,7.34657881 L139.560644,7.44399201 L132.944664,7.44399201 L132.944664,5.93408741 L133.001489,3.80723255 L129.83556,3.80723255 L129.892384,5.93408741 L129.892384,7.44399201 L124.291125,7.44399201 L121.928855,7.34657881 L121.993797,9.69261337 L121.985679,9.67637784 Z M125.086666,16.3572998 L129.892384,16.3572998 L129.892384,19.377109 L125.086666,19.377109 L125.086666,16.3572998 Z M132.944664,10.4232124 L138.424157,10.4232124 L138.424157,13.4998459 L132.944664,13.4998459 L132.944664,10.4232124 Z M132.944664,16.3572998 L138.424157,16.3572998 L138.424157,19.377109 L132.944664,19.377109 L132.944664,16.3572998 Z" id="形状" fill="#00706B"></path>
                <path d="M151.087873,12.801718 L151.721059,13.7271434 C151.899649,13.9869119 152.467893,14.9204551 153.458261,16.5277729 C153.125432,17.6399069 152.784486,18.4841546 152.435422,19.0848694 C152.07824,19.6855841 151.623645,20.3106521 151.087873,21.0006623 L151.087873,12.7936002 L151.087873,12.801718 Z M151.128462,28.2011213 L151.087873,24.6861284 L151.087873,21.4309039 C151.737294,22.0965608 152.167536,22.575509 152.37048,22.8677486 C152.581542,23.1518705 152.784486,23.4359923 152.995548,23.7363497 C153.912856,22.4293892 154.481099,21.5526704 154.700279,21.1224288 C154.919459,20.6840694 155.106167,20.2944166 155.27664,19.9615882 L155.609469,20.6840694 C155.666293,20.8220714 155.779942,21.1873709 155.934179,21.7799679 L156.510541,21.2036065 C156.859605,20.8545425 157.509026,20.3999476 158.466923,19.8560572 C157.817501,18.5734501 157.184315,17.3639028 156.567365,16.2030622 L156.827134,15.2938724 C156.916429,14.9691617 157.070667,14.262916 157.3142,13.150782 C158.125976,14.2060916 158.62116,14.8717485 158.815987,15.1558703 C159.010813,15.4399921 159.359877,16.0894135 159.863178,17.1122521 L159.473526,18.2406216 C159.197522,19.0361628 158.824104,19.8235861 158.361392,20.6028917 C157.890561,21.3903151 157.233022,22.2102095 156.372539,23.062575 C157.224904,23.5658766 157.776912,23.9230583 158.044799,24.1503558 C158.304567,24.3695355 158.604925,24.6455395 158.929635,24.9458969 C159.392348,24.4020065 159.773883,23.9149405 160.066123,23.4684634 C160.358362,23.030104 160.926606,22.0072654 161.795207,20.4161831 L162.477099,21.8773811 C162.533924,22.0153831 162.696279,22.4618603 162.956048,23.2249304 C163.816531,22.299505 164.612072,21.5364349 165.334553,20.9438379 L164.888076,20.0752369 C164.855605,20.002177 164.230537,18.8819252 163.02099,16.698246 L163.370054,15.0097505 C163.499938,14.3928003 163.662293,13.5566703 163.816531,12.5094784 L164.043828,10.9021606 C164.068182,10.715452 164.10877,10.4475657 164.165595,10.0903839 C163.134638,10.017324 162.103682,9.87120423 161.048372,9.65202454 L161.048372,10.4962723 C161.048372,10.9427494 160.959077,11.827586 160.780486,13.150782 C160.334009,12.5094784 159.928121,11.9249992 159.570939,11.4135799 L159.018931,11.933117 C158.702338,12.2334743 158.158447,12.5744205 157.379142,12.9559556 L157.647028,11.5434642 C157.647028,11.5434642 157.679499,11.2918134 157.744441,10.8696895 C157.817501,10.4394479 157.874326,10.0903839 157.923032,9.79814433 C156.705367,9.6844956 155.674411,9.48155144 154.830163,9.20554737 L154.789574,10.2933281 C154.773339,10.7641586 154.73275,11.202518 154.684043,11.6002885 C154.635337,12.0061769 154.570395,12.4364185 154.464864,12.8910134 C153.96968,12.1522967 153.515085,11.4704043 153.13355,10.8453362 C152.484129,11.4216977 152.021416,11.7707616 151.794118,11.9006459 C151.542468,12.0305302 151.307052,12.1522967 151.079755,12.2578276 L151.079755,8.58859711 L165.391378,8.58859711 L165.391378,24.3370644 C165.391378,24.6536573 165.326435,24.8971903 165.212787,25.0838989 C165.09102,25.2624898 164.725721,25.3355497 164.100653,25.3193142 C163.572998,25.3030786 163.004754,25.2624898 162.412157,25.1650766 L162.793692,26.0255598 C163.150874,26.853572 163.353818,27.4705223 163.402525,27.9007639 C163.451231,28.3228878 163.49182,28.663834 163.516173,28.9154848 C165.131609,28.8099538 166.300567,28.6151274 167.014931,28.3472411 C167.737412,28.0874726 168.159536,27.7059375 168.281302,27.2269893 C168.403069,26.7480411 168.459893,26.228504 168.459893,25.6764959 L168.459893,8.68601031 L168.524835,5.43078588 L165.505026,5.52819908 L150.901164,5.52819908 L147.800177,5.43078588 L147.873237,8.68601031 L147.873237,24.6861284 L147.800177,28.2011213 L151.120344,28.2011213 L151.128462,28.2011213 Z" id="形状" fill="#00706B"></path>
            </g>
        </g>
    </g>
</svg>
